<svg width="940" height="941" viewBox="0 0 940 941" fill="none" xmlns="http://www.w3.org/2000/svg">
<path d="M453.075 0.982353C712.18 -8.47015 929.955 193.776 939.66 452.872C949.366 711.967 747.332 929.939 488.246 939.898C228.802 949.87 10.4629 747.496 0.743998 488.043C-8.9749 228.589 193.612 10.4478 453.075 0.982353Z" fill="#EEEEEE"/>
<path d="M454.34 18.4285C703.949 9.65342 913.455 204.797 922.4 454.4C931.344 704.004 736.342 913.642 486.745 922.755C236.909 931.877 27.0254 736.648 18.0726 486.805C9.1199 236.963 204.491 27.2119 454.34 18.4285Z" fill="#0B0B0B"/>
<path d="M352.851 360.711C361.558 360.577 369.67 363.031 376.98 367.74C398.4 381.537 406.283 407.599 411.392 431.142C404.881 416.297 396.654 397.73 380.635 391.237C398.42 415.123 406.612 452.495 411.648 481.64C410.611 478.391 409.623 475.127 408.561 471.886C406.096 464.362 402.971 457.098 399.95 449.787C390.039 425.807 376.842 399.527 352.614 387.257C355.247 392.821 358.754 398.032 361.541 403.543C365.057 410.496 368.117 417.712 371.389 424.786C376.033 434.826 380.838 444.781 384.554 455.212C371.659 435.657 361.166 431.253 338.917 425.99C347.666 433.57 355.719 442.272 363.87 450.499C372.15 458.795 379.588 468.471 387.284 477.346C374.546 473.282 358.139 470.361 344.903 472.597C330.803 474.978 319.457 484.637 311.408 495.985C298.318 514.442 293.922 531.469 297.781 553.601C296.326 551.247 295.041 548.791 293.936 546.254C281.403 517.09 311.549 484.127 321.871 457.435L322.035 456.997C310.679 466.19 302.352 475.618 295.418 488.595C298.833 468.86 309.821 429.072 319.86 412.612C311.632 419.594 305.127 426.319 299.669 435.687C302.356 414.004 307.104 392.725 321.924 375.797C330.283 366.249 340.285 361.499 352.851 360.711Z" fill="#EEEEEE"/>
<path d="M454.776 143.183C466.458 141.113 481.151 144.466 491.426 150.119C505.953 158.111 522.479 178.399 527.099 194.187C519.628 183.203 508.402 172.225 496.126 166.91C504.557 177.518 510.912 188.743 515.578 201.479C515.1 201.077 514.636 200.665 514.164 200.256C511.028 197.54 508.684 193.795 506.147 190.522C500.247 182.913 492.159 177.674 483.578 173.534C494.131 187.754 501.121 203.591 508.203 219.69C493.782 202.836 485.282 194.715 466.887 182.628C476.476 196.523 484.575 210.949 497.029 222.616C484.351 216.296 474.117 208.528 459.419 207.502C469.222 213.703 479.454 219.851 488.091 227.65C494.819 233.726 500.583 240.836 507.58 246.627C513.767 251.747 521.071 255.414 527.341 260.483C515.421 254.307 507.261 253.489 496.121 244.563C479.524 232.061 463.055 220.17 442.008 216.687C426.607 214.138 410.678 215.555 397.714 224.868C388.461 231.515 376.766 244.042 375.141 255.809C374.093 263.393 377.474 271.939 381.243 278.398C383.241 281.823 385.489 285.009 386.627 288.85C390.375 301.508 387.341 314.16 395.556 325.489L387.515 320.444C390.949 328.091 398.129 332.355 403.723 338.273C407.841 342.628 411.028 347.348 414.154 352.431C408.578 347.078 402.203 343.006 395.706 338.884C391.426 336.169 386.747 333.718 383.262 329.972C373.484 319.461 382.417 307.956 380.685 296.202C379.957 291.256 375.808 285.88 373.551 281.381C365.742 265.818 367.404 251.373 376.161 236.62C379.086 231.692 382.557 227.071 385.316 222.05C391.804 210.242 397.607 197.248 401.839 184.473C399.637 186.794 397.791 189.42 395.883 191.981C398.757 183.851 401.97 176.76 407.301 169.909C419.509 154.218 435.066 145.608 454.776 143.183Z" fill="#EEEEEE"/>
<path d="M393.811 496.712C399.654 496.852 403.783 497.962 408.856 500.702C403.276 502.899 397.945 505.203 392.659 508.057C411.75 508.1 430.828 506.898 449.925 506.985C461.613 507.037 473.304 507.992 484.967 508.701C473.323 518.74 468.83 531.339 463.967 545.46C461.943 551.338 459.955 557.181 455.725 561.888C452.061 565.965 447.284 568.562 442.631 571.33C448.284 560.011 451.807 549.254 453.788 536.768C446.331 546.179 437.441 553.22 426.627 558.454C428.96 551.981 431.735 545.505 434.603 539.25C436.529 535.049 439.005 530.668 440.271 526.254L439.307 526.013C433.952 527.718 428.259 534.13 424.347 538.02C415.092 547.723 405.415 555.202 393.628 561.523C400.126 548.58 407.288 539.054 415.734 527.458C408.665 531.122 401.48 534.83 394.721 539.04C384.174 545.612 374.279 554.537 362.07 557.701C361.348 545.183 362.983 535.451 368.677 524.268C357.33 533.442 348.847 546.793 339.57 557.984C339.005 542.562 344.279 527.495 354.338 515.792C364.418 504.228 378.648 497.694 393.811 496.712Z" fill="#EEEEEE"/>
<path d="M575.916 53.3464C597.828 51.3578 617.237 67.425 619.376 89.322C621.515 111.22 605.581 130.739 583.699 133.027C561.604 135.338 541.853 119.215 539.693 97.105C537.534 74.994 553.792 55.3544 575.916 53.3464Z" fill="#EEEEEE"/>
<path d="M577.503 67.6251C582.686 67.2881 587.702 67.9221 592.252 70.5941C596.959 73.3581 600.139 77.7451 601.435 83.0371C603.494 91.4441 601.32 101.34 596.782 108.602C593.068 114.546 588.245 117.853 581.511 119.385C576.349 119.708 571.294 119.07 566.776 116.381C562.136 113.676 558.812 109.182 557.585 103.953C555.535 95.4451 558.011 84.9301 562.711 77.6621C566.322 72.0781 571.05 68.9641 577.503 67.6251Z" fill="#0B0B0B"/>
<path d="M597.354 601.809L696.022 619.204C696.012 637.425 695.401 655.9 696.215 674.094C702.914 673.86 709.864 671.702 716.395 670.18C727.853 667.513 739.289 664.756 750.704 661.907C754.902 660.868 760.586 658.603 764.789 658.779L765.062 659.721C764.449 660.594 763.796 660.786 762.828 661.149C752.878 664.884 742.321 667.61 732.18 670.869C720.192 674.722 708.197 679.221 696.016 682.384L696.037 767.754C692.005 769.986 687.845 771.979 683.578 773.721C654.89 766.706 626.161 759.861 597.392 753.188L597.231 748.081C597.175 746.435 596.889 744.713 597.712 743.225C602.926 743.247 612.838 746.43 618.521 747.687C640.511 752.58 662.477 757.584 684.417 762.697L684.481 682.266C671.449 679.06 658.062 676.959 644.906 674.278C629.094 671.054 613.241 667.286 597.303 664.763L597.304 653.694C626.253 659.426 655.344 664.81 684.391 670.024L684.437 628.297C655.568 622.142 626.021 618.623 597.325 611.785L597.354 601.809Z" fill="#EEEEEE"/>
<path d="M267.838 203.174C271.798 203.344 275.459 204.281 278.654 206.738C289.528 215.098 285.038 235.864 284.245 247.609C283.816 253.968 283.799 260.39 284.619 266.72C287.696 290.492 302.571 313.818 319.635 330.122C325.294 335.529 331.548 340.188 337.753 344.94C324.804 343.593 312.418 340.627 301.798 332.684C283.419 318.936 269.826 293.638 266.662 271.119C265.162 258.287 267.648 250.827 269.147 238.684L269.22 238.055C267.343 236.221 265.167 234.56 262.625 233.791C258.091 232.419 253.424 234.735 249.525 236.92C239.87 242.332 231.724 250.442 222.949 257.144C208.339 268.416 192.845 278.495 176.619 287.285C179.637 281.061 183.886 275.093 188.085 269.617C202.732 250.51 233.348 218.421 254.425 207.45C258.796 205.175 262.949 203.812 267.838 203.174Z" fill="#EEEEEE"/>
<path d="M667.239 203.585C672.561 202.989 677.088 203.675 681.96 205.867C700.822 214.356 719.818 237.186 732.671 253.34C738.05 260.099 743.82 266.571 746.907 274.742C737.564 271.007 728.253 266.898 719.805 261.39C709.185 254.466 692.276 234.371 679.959 233.766C676.272 233.584 674.372 235.239 671.793 237.607C671.929 242.36 672.717 247.178 673.051 251.935C673.902 264.053 671.867 274.714 668.022 286.174C664.895 294.265 661.075 301.784 656.003 308.844C643.497 326.251 623.473 338 602.368 341.443C624.119 326.87 646.428 299.768 653.398 274.501C655.327 267.506 655.968 260.01 655.788 252.772C655.476 240.243 650.819 223.97 656.538 212.235C658.876 207.438 662.361 205.222 667.239 203.585Z" fill="#EEEEEE"/>
<path d="M725.187 119.825C731.732 123.574 758.037 145.612 762.151 151.351C764.892 155.173 765.724 159.857 764.906 164.465C763.67 171.434 758.431 178.235 752.558 182.089C746.639 185.972 740.924 186.404 734.214 184.936C733.366 196.675 730.613 209.459 728.72 221.172C724.115 217.402 719.439 213.719 714.695 210.125C714.929 207.53 715.335 204.959 715.716 202.382C716.715 193.446 718.838 184.794 719.074 175.752C715.625 172.759 712.041 169.978 708.423 167.196C703.166 174.828 696.946 182.014 691.201 189.297L678.646 179.484L705.006 145.899C711.723 137.215 718.187 128.28 725.187 119.825Z" fill="#EEEEEE"/>
<path d="M729.908 140.423C734.652 144.129 739.508 148.15 743.938 152.221C746.477 154.554 749.104 157.473 749.122 161.131C749.135 163.626 747.868 165.619 746.189 167.361C743.327 170.331 740.531 171.036 736.499 171.159C729.398 168.286 723.146 161.131 717.021 156.462C721.63 151.397 725.752 145.859 729.908 140.423Z" fill="#0B0B0B"/>
<path d="M193.759 464.867C197.846 495.757 189.037 535.007 182.11 565.206C179.616 576.08 176.712 586.902 174.945 597.926C170.75 622.797 171.104 648.223 175.99 672.968C167.919 661.619 161.407 649.701 156.706 636.554C148.384 613.28 146.222 587.523 145.888 562.955C145.803 556.693 145.385 550.032 146.691 543.881C147.251 541.241 148.511 538.787 149.667 536.365C153.29 528.532 157.507 520.97 161.095 513.111C167.537 498.732 173.396 484.098 178.658 469.245C177.907 476.42 175.702 483.684 174.544 490.846C171.758 508.165 169.131 525.509 166.663 542.876C164.055 561.517 161.265 581.161 162.126 599.995C168.296 579.737 176.696 559.687 181.553 539.094C185.522 522.269 188.685 504.885 191.068 487.774C192.098 480.385 192.26 472.699 193.651 465.404L193.759 464.867Z" fill="#EEEEEE"/>
<path d="M161.433 381.533C161.719 381.931 154.498 400.57 153.628 403.195C142.922 435.487 132.563 472.374 131.197 506.493C137.932 488.076 142.504 468.816 149.687 450.568C152.565 443.256 156.107 436.329 159.776 429.395C161.65 425.851 163.474 421.407 165.969 418.322L166.603 418.278L166.309 417.788C166.847 419.069 166.574 420.429 166.336 421.779C165.516 426.433 163.72 430.992 162.557 435.585C159.74 446.711 157.11 457.862 153.975 468.907C149.213 487.603 140.118 513.804 129.706 530.046C124.594 538.019 118.274 545.196 112.202 552.443C113.87 544.416 113.89 535.791 114.394 527.612C115.203 514.491 116.02 501.285 117.558 488.228C120.402 464.069 125.081 441.414 132.119 418.146C133.763 412.713 135.204 406.079 138.366 401.328C142.098 395.72 155.471 386.241 161.433 381.533Z" fill="#EEEEEE"/>
<path d="M533.069 516.722C539.587 516.49 546.236 516.498 552.746 516.874C558.536 517.208 561.818 519.05 565.591 523.41C570.292 528.842 579.068 541.447 580.524 548.464C581.341 552.403 580.625 556.946 580.307 560.932C579.761 558.705 579.149 556.45 578.342 554.301C576.778 550.135 561.944 526.098 559.128 524.86C557.735 524.929 557.548 525.02 556.387 525.804C555.903 526.982 555.563 527.762 556.166 528.997C557.296 531.315 559.03 533.529 560.327 535.794C565.343 544.556 570.327 553.026 573.788 562.554C572.732 568.754 570.323 574.418 566.995 579.757C568.523 572.963 571.537 566.864 568.305 560.061C565.239 553.608 557.155 539.88 551.592 535.76C548.949 533.803 545.879 532.798 542.818 531.696C542.868 531.77 542.917 531.845 542.969 531.918C546.237 536.572 548.224 541.772 550.75 546.834C552.652 550.645 554.839 554.336 556.952 558.034C558.944 561.424 560.2 564.628 561.147 568.426C559.412 575.152 556.58 580.669 552.72 586.421C553.103 585.103 553.47 583.781 553.821 582.455C554.697 579.113 555.243 575.637 554.877 572.178C554.235 566.096 548.131 553.318 544.808 547.936C543.286 545.47 541.755 544.247 538.844 543.681C537.695 543.457 536.999 543.375 536 544.046C535.647 549.739 540.297 555.949 542.41 561.095C546.935 572.117 546.692 580.556 542.066 591.437C542.025 584.07 541.704 576.589 540.443 569.325C536.678 565.77 533.615 559.912 529.311 557.301C518.43 550.703 494.847 560.009 480.283 545.911C480.72 538.008 482.61 529.254 488.232 523.355C490.512 520.964 493.275 519.252 496.495 518.47C500.773 517.43 505.838 517.804 510.25 517.645L533.069 516.722Z" fill="#EEEEEE"/>
<path d="M204.461 128.888C207.717 129.09 265.13 167.347 273.758 172.941C268.679 176.134 263.632 179.377 258.618 182.67L243.885 172.937L226.326 186.522L221.522 190.198L227.679 210.117C222.848 213.955 218.198 218.106 213.532 222.145C205.637 195.148 197.096 168.303 188.845 141.409C193.694 136.879 199.147 132.852 204.461 128.888Z" fill="#EEEEEE"/>
<path d="M206.641 147.887C214.272 151.492 226.353 159.987 233.302 165.277L226.665 170.441L216.5 178.223C213.116 168.143 209.83 158.031 206.641 147.887Z" fill="#0B0B0B"/>
<path d="M401.618 43.7095C406.093 43.501 410.753 43.9265 414.884 45.7424C421.897 48.8246 425.422 54.7242 428.179 61.493C423.063 62.534 417.981 63.739 412.942 65.108C412.353 64.318 411.746 63.531 411.101 62.786C408.45 59.722 404.606 58.2554 400.62 57.9923C395.312 57.6419 388.411 58.8802 384.375 62.61C383.061 63.824 381.921 65.568 382.009 67.432C382.608 80.099 417.281 70.973 429.589 83.788C433.32 87.672 434.929 93.248 434.658 98.553C434.36 105.021 431.512 111.108 426.737 115.481C417.377 123.926 404.752 125.948 392.635 125.456C390.168 125.063 387.585 124.539 385.249 123.623C376.642 120.248 372.741 114.298 369.252 106.262C373.945 104.276 378.859 102.635 383.639 100.854C385.803 103.354 387.594 106.243 389.994 108.536C393.122 111.526 397.878 112.249 402.042 112.005C406.902 111.72 412.832 110.084 416.044 106.159C417.649 104.197 418.328 101.813 417.942 99.302C415.586 83.959 386.932 94.232 373.002 84.036C369.001 81.107 366.974 76.684 366.41 71.842C365.663 65.422 367.488 59.767 371.651 54.8457C378.625 46.6012 391.469 44.4052 401.618 43.7095Z" fill="#EEEEEE"/>
<path d="M322.464 570.783C350.75 580.815 395.921 583.051 426.243 583.873C448.72 584.482 471.696 584.565 494.144 583.224C499.525 582.903 517.303 580.843 521.187 582.703L520.924 583.547C514.638 587.734 468.302 591.35 458.81 591.809C449.358 592.318 439.862 592.664 430.437 593.535C437.204 595.149 449.315 595.931 456.338 595.554C459.951 596.243 464.046 596.136 467.738 596.357C485.144 597.397 505.169 595.61 521.884 597.914C501.553 600.353 480.962 601.338 460.5 601.889C422.146 602.92 383.087 601.334 345.2 595.209C338.86 594.184 327.395 593.243 322.661 588.754C321.878 586.534 322.159 584.251 322.248 581.934C334.438 586.271 354.222 589.604 367.159 590.222C352.521 585.73 337.333 583.339 322.504 578.588L322.464 570.783Z" fill="#EEEEEE"/>
<path d="M648.753 76.1589L663.097 84.0229L647.771 113.503C644.847 119.133 641.377 124.84 639.274 130.815C638.377 133.366 637.576 136.354 638.249 139.047C639.182 142.789 642.321 145.914 645.523 147.863C649.004 149.982 654.01 151.855 658.101 150.596C660.841 149.753 662.722 147.413 664.356 145.189C667.84 140.449 670.279 134.563 673.126 129.399L690.698 97.7599L704.233 105.631L700.983 111.743C696.459 120.467 691.848 129.145 687.148 137.776C683.76 144.115 680.66 151.349 676.034 156.838C673.219 160.178 669.678 162.821 665.561 164.325C657.982 167.095 650.138 165.18 643.09 161.902C634.768 158.032 626.523 152.008 623.428 142.991C621.893 138.409 621.738 133.478 622.983 128.81C624.694 122.298 628.527 116 631.576 110.019C637.319 98.7539 643.409 87.6199 648.753 76.1589Z" fill="#EEEEEE"/>
<path d="M558.643 337.353C560.198 338.489 560.884 341.253 561.318 343.03C566.412 363.895 552.688 411.209 541.216 429.281C531.194 445.069 512.431 463.255 493.535 467.279C483.167 469.487 473.344 467.189 464.571 461.417C446.608 449.599 424.883 421.836 420.522 400.763C431.293 417.163 449.42 435.875 467.145 444.424C478.698 449.996 491.578 451.849 503.827 447.443C520.55 441.428 533.226 422.688 540.433 407.322C536.473 412.012 532.55 416.323 527.733 420.152C540.016 401.903 558.351 367.242 559.364 345.036C559.481 342.477 559.016 339.878 558.643 337.353Z" fill="#EEEEEE"/>
<path d="M300.545 71.048L300.763 71.3C301.415 75.057 296.142 109.317 295.262 115.644C310.107 123.305 324.852 131.176 339.767 138.7L321.377 147.015C311.868 142.1 302.598 136.737 293.09 131.82C292.653 142.244 291.474 152.669 290.912 163.098C288.064 164.754 285.108 166.267 282.214 167.844L273.886 172.574C276.195 156.199 276.636 139.479 278.917 123.065L242.753 102.607C247.912 99.548 253.026 96.417 258.097 93.214C265.49 97.948 273.236 102.225 280.82 106.651C281.783 97.466 282.768 88.199 284.193 79.074C289.422 76.117 295.134 73.683 300.545 71.048Z" fill="#EEEEEE"/>
<path d="M346.606 640.288C351.226 643.809 355.483 646.592 361.162 648.13C395.847 657.526 476.947 660.528 511.342 650.885C517.269 649.223 522.496 646.366 527.812 643.332C528.026 646.046 527.974 648.787 527.997 651.509C512.35 659.971 484.852 661.749 466.976 662.677L467.032 670.025C475.59 670.116 484.338 669.264 492.877 668.613C501.944 668.206 511.041 666.799 520.081 666.676C519.229 666.93 518.381 667.199 517.524 667.442C484.653 676.762 376.444 677.465 346.401 660.851C346.213 658.809 346.177 656.741 346.085 654.693C354.32 658.352 372.452 661.812 381.283 661.272C381.434 661.263 381.584 661.248 381.735 661.236L381.695 661.462L381.122 660.721C370.804 659.696 356.037 656.958 347.09 651.641C346.91 651.534 346.732 651.422 346.553 651.313C346.384 647.631 346.499 643.97 346.606 640.288Z" fill="#EEEEEE"/>
<path d="M439.516 663.477L447.988 663.562C448.01 665.653 447.909 667.751 447.849 669.841L439.444 669.889L439.516 663.477Z" fill="#0B0B0B"/>
<path d="M421.092 663.596L427.984 663.879L427.96 671.215L421.321 671.038C421.125 668.565 421.135 666.075 421.092 663.596Z" fill="#0B0B0B"/>
<path d="M772.594 388.752C775.885 391.159 778.558 396.185 780.508 399.755C793.521 423.59 796.862 449.649 803.117 475.633C806.331 488.984 809.912 502.595 814.671 515.488C814.401 510.235 813.793 504.997 813.531 499.734C812.792 484.914 812.374 470.189 810.18 455.483C807.949 440.53 804.098 426.021 800.278 411.417C805.974 420.477 809.484 431.196 812.603 441.39C821.906 474.895 821.862 511.342 822.952 545.88C818.607 541.376 814.168 536.97 810.478 531.895C787.87 500.805 786.457 461.747 780.846 425.255C778.953 412.951 776.739 400.516 772.594 388.752Z" fill="#EEEEEE"/>
<path d="M373.303 339.646C380.565 339.203 386.387 340.398 392.638 344.15C402.263 349.927 410.056 359.629 417.992 367.459C436.028 385.255 469.305 414.838 494.047 421.201C498.854 422.437 505.127 422.883 510.006 421.881C511.912 421.49 514.296 419.942 516.162 420.164C513.924 423.073 503.864 426.435 500.178 427.718C493.841 429.27 487.309 429.601 480.909 428.191C460.937 423.792 431.785 401.702 416.347 387.822C405.038 377.654 394.28 365.443 381.051 357.815C372.806 353.062 364.254 350.724 354.758 350.612C360.599 346.102 366.032 341.594 373.303 339.646Z" fill="#EEEEEE"/>
<path d="M480.293 39.6713C498.852 41.203 517.402 42.855 535.939 44.6272C535.459 49.285 535.157 53.9275 534.909 58.6014C521.649 57.5517 508.368 56.0233 495.083 55.4372C494.81 61.25 494.254 67.078 493.847 72.885C505.25 73.884 516.741 74.596 528.086 76.125L527.629 80.89L526.938 89.743C515.723 88.43 504.303 87.517 493.026 86.939C491.728 97.434 491.248 108.492 490.968 119.07C485.424 119.041 479.962 118.525 474.462 117.89C476.558 100.482 477.183 81.63 478.288 64.031C478.793 56.0007 479.054 47.6085 480.293 39.6713Z" fill="#EEEEEE"/>
<path d="M427.317 247.309L427.953 247.498C433.307 247.459 438.661 247.448 444.016 247.467L459.971 247.492C459.981 252.921 459.924 258.363 460.02 263.791C454.885 263.814 449.267 263.408 444.194 264.13L444.013 264.929L444.064 279.657L443.934 279.911L444.004 295.019L443.986 310.709C438.645 310.707 433.305 310.677 427.965 310.617L427.268 310.867L411.837 310.511L411.933 295.159L411.849 285.363C410.341 282.778 411.752 267.633 411.971 263.902C411.874 258.432 411.84 252.962 411.871 247.491C417.018 247.521 422.177 247.634 427.317 247.309Z" fill="#2F2E2F"/>
<path d="M427.953 247.498C433.307 247.459 438.661 247.448 444.016 247.467L459.971 247.492C459.981 252.921 459.924 258.363 460.02 263.791C454.885 263.814 449.267 263.408 444.194 264.13L443.655 263.99L427.973 264.021L427.953 247.498Z" fill="#EEEEEE"/>
<path d="M444.016 247.467L459.971 247.492C459.981 252.921 459.924 258.363 460.02 263.791C454.885 263.814 449.267 263.408 444.194 264.13L443.655 263.99C444.873 260.313 444.06 251.726 444.016 247.467Z" fill="#7E7E7E"/>
<path d="M428.225 280.068C433.46 280.11 438.706 280.235 443.934 279.911L444.004 295.019L443.986 310.709C438.645 310.707 433.305 310.677 427.965 310.617L428.05 295.043C428.335 290.056 427.956 285.062 428.225 280.068Z" fill="#EEEEEE"/>
<path d="M428.225 280.068C433.46 280.11 438.706 280.235 443.934 279.911L444.004 295.019C438.691 294.947 433.364 295.031 428.05 295.043C428.335 290.056 427.956 285.062 428.225 280.068Z" fill="#7E7E7E"/>
<path d="M411.871 247.491C417.018 247.521 422.177 247.634 427.317 247.309C427.035 252.779 426.811 258.481 427.414 263.933C422.267 263.956 417.119 263.946 411.971 263.902C411.874 258.432 411.84 252.962 411.871 247.491Z" fill="#555455"/>
<path d="M428.081 264.947C433.448 264.326 438.646 264.249 444.013 264.929L444.064 279.657L443.934 279.911C438.706 280.235 433.46 280.11 428.225 280.068C427.999 275.039 428.09 269.981 428.081 264.947Z" fill="#555455"/>
<path d="M411.933 295.159L427.221 295.017C427.04 300.294 426.87 305.595 427.268 310.867L411.837 310.511L411.933 295.159Z" fill="#7E7E7E"/>
<path d="M411.887 279.981L427.392 279.95C427.349 284.941 427.508 290.041 427.221 295.017L411.933 295.159L411.849 285.363L411.887 279.981Z" fill="#EEEEEE"/>
<path d="M368.513 713.527C372.911 716.204 377.13 718.416 382.033 720.019C410.122 729.206 462.664 729.505 490.985 722.471C497.791 720.781 503.482 718.019 509.507 714.486L509.394 722.818C509.243 722.917 509.095 723.019 508.943 723.116C499.02 729.478 484.492 731.308 472.899 732.822C469.56 733.258 465.976 733.31 462.719 734.076C461.394 734.387 461.255 734.464 460.554 735.55L460.51 737.519C464.632 740.674 490.138 736.144 496.547 735.853C465.942 745.816 400.181 746.017 372.016 732.35C370.491 731.61 369.269 730.85 368.58 729.249L368.554 726.646L369.175 726.205L370.469 726.667C379.105 730.727 395.492 735.196 404.832 734.335C401.563 732.452 393.728 731.849 389.635 730.754C383.683 729.161 378.064 727.134 372.435 724.638L368.512 721.829C368.51 719.064 368.467 716.291 368.513 713.527Z" fill="#EEEEEE"/>
<path d="M438.269 735.026C441.762 735.073 445.584 734.037 448.823 735.53C449.82 737.066 449.527 738.119 449.506 739.924C446.072 739.884 442.344 740.882 439.142 739.473C438.046 737.929 438.311 736.888 438.269 735.026Z" fill="#0B0B0B"/>
<path d="M414.006 734.52L422.409 734.96L422.278 741.052C419.992 740.851 416.48 741.186 414.626 739.802C413.624 738.234 413.938 736.308 414.006 734.52Z" fill="#0B0B0B"/>
<path d="M202.515 284.581L202.763 285.177C198.596 291.443 193.271 297.12 188.909 303.33C179.238 317.099 170.833 331.279 162.458 345.851C173.799 337.031 190.018 322.325 199.402 311.737C197.363 316.722 196.026 321.933 193.674 326.809C188.656 337.215 179.742 346.191 172.225 354.897C161.023 366.897 149.52 378.378 135.778 387.493C144.848 362.442 159.813 315.249 179.924 297.745C186.368 292.136 194.97 288.465 202.515 284.581Z" fill="#EEEEEE"/>
<path d="M444.064 279.657C448.921 279.535 454.267 278.985 459.05 279.741C459.048 284.839 458.96 289.953 459.177 295.047L444.857 295.037C443.415 298.223 444.479 307.212 444.27 311.232C449.438 311.144 454.63 310.95 459.797 311.101C459.582 314.505 458.638 320.852 460.314 323.889C460.834 319.653 460.507 315.138 460.484 310.866C465.166 310.929 471.465 311.781 475.969 310.669L476.108 311.168L475.944 326.737L476.027 342.421C472.853 342.399 463.696 343.108 461.272 341.903L461.033 341.422L460.053 340.597L459.896 342.384C455.158 342.959 448.684 343.146 443.977 342.334L427.985 342.416L427.965 310.617C433.305 310.677 438.645 310.707 443.986 310.709L444.004 295.019L443.934 279.911L444.064 279.657Z" fill="#2F2E2F"/>
<path d="M427.965 310.617C433.305 310.677 438.645 310.707 443.986 310.709C443.995 321.087 444.688 332.012 443.977 342.334L427.985 342.416L427.965 310.617Z" fill="#7E7E7E"/>
<path d="M460.484 310.866C465.166 310.929 471.465 311.781 475.969 310.669L476.108 311.168L475.944 326.737L461.174 326.834L460.314 323.889C460.834 319.653 460.507 315.138 460.484 310.866Z" fill="#7E7E7E"/>
<path d="M445.013 327L459.905 327.085C459.833 331.589 459.883 336.095 460.053 340.597L459.896 342.384C455.057 341.731 449.841 342.12 444.957 342.158L445.013 327Z" fill="#7E7E7E"/>
<path d="M445.079 280.043C449.719 280.055 454.432 280.238 459.05 279.741C459.048 284.839 458.96 289.953 459.177 295.047L444.857 295.037C445.418 290.117 445.111 284.993 445.079 280.043Z" fill="#555455"/>
<path d="M661.361 589.185C670.015 588.801 683.039 591.74 692.098 593.057C714.555 596.321 737.094 599.973 759.649 602.414C743.355 604.87 726.877 608.284 710.726 611.584C706.824 612.31 703.133 612.9 699.147 612.688C688.561 612.126 677.462 609.29 667.015 607.429C649.145 604.246 631.132 601.342 613.396 597.469C629.471 595.69 645.338 591.479 661.361 589.185Z" fill="#EEEEEE"/>
<path d="M356.116 485.202C366.471 484.088 374.399 486.909 383.728 490.849C373.641 491.111 363.756 494.607 355.128 499.707C341.123 508.127 330.895 521.614 326.564 537.371C324.958 543.379 324.323 549.608 322.751 555.629L322.583 556.256C320.846 549.413 319.587 542.827 319.337 535.758C319.429 529.73 320.89 523.793 322.235 517.946C315.767 529.209 307.957 538.867 306.612 552.177C306.059 549.713 305.597 547.261 305.352 544.746C303.968 530.516 309.571 514.191 318.641 503.242C327.992 491.954 341.824 486.484 356.116 485.202Z" fill="#EEEEEE"/>
<path d="M719.966 344.379C725.652 352.316 734.354 376.372 738.296 386.398C741.36 394.192 744.795 401.84 748.137 409.518C747.918 392.375 744.804 375.079 740.281 358.552C748.391 369.455 754.349 377.141 758.208 390.368C762.245 407.187 763.485 423.868 764.591 441.044C761.456 438.63 758.334 436.209 755.387 433.564C731.71 412.311 721.632 375.423 719.966 344.379Z" fill="#EEEEEE"/>
<path d="M781.891 505.769C782.236 506.115 782.418 506.258 782.67 506.739C785.365 511.893 786.421 518.873 788.301 524.447C790.512 531.004 795.373 540.767 796.528 546.963C797.607 552.75 797.086 559.056 796.877 564.92C796.029 588.759 792.897 612.077 786.668 635.123C785.395 639.326 784.263 643.581 783.068 647.807L781.891 505.769Z" fill="#EEEEEE"/>
<path d="M200.84 346.424L201.183 346.87C200.491 353.853 199.141 360.874 198.055 367.816C196.294 379.071 194.633 390.429 191.926 401.5C203.104 389.99 215.025 365.356 222.709 350.616C219.589 365.18 216.558 379.013 210.813 392.836C205.404 404.372 198.442 416.859 189.829 426.254C185.735 430.72 181.02 434.714 176.509 438.761C179.641 417.022 180.92 394.234 188.323 373.424C191.65 364.072 196.364 355.263 200.84 346.424Z" fill="#EEEEEE"/>
<path d="M338.429 57.5157C339.008 57.8081 339.308 58.2564 339.533 58.8464C342.098 65.5499 344.124 72.5629 346.369 79.3839C352.071 96.7109 357.513 114.171 363.741 131.316L348.125 136.433C346.169 134.032 326.303 71.9969 322.992 63.0059L338.429 57.5157Z" fill="#EEEEEE"/>
<path d="M400.659 610.427C405.253 610.772 409.857 610.976 414.464 611.038C414.642 620.863 414.718 630.689 414.692 640.516L425.125 640.553C424.957 630.873 424.917 621.191 425.007 611.509C432.196 611.738 439.391 611.778 446.583 611.627C446.676 623.751 445.98 635.903 446.008 648.048L438.994 648.04C438.896 639.268 440.184 629.087 438.61 620.531C437.581 620.029 437.63 620.062 436.526 620.385C435.446 622.563 436.658 643.661 436.727 648.053C424.701 648.179 412.676 647.701 400.698 646.623C400.789 634.557 400.776 622.492 400.659 610.427Z" fill="#EEEEEE"/>
<path d="M406.014 751.828C409.511 752.075 412.99 752.689 416.455 753.215C416.682 760.145 416.847 767.077 416.95 774.01L425.49 774.006L425.25 789.978C446.852 790.133 464.727 790.614 483.889 778.888L484.001 787.431C477.835 792.416 470.422 794.307 462.877 796.173C459.153 797.011 455.277 797.49 451.476 797.804C434.311 799.224 406.223 798.985 392.553 787.428C392.551 783.954 392.815 780.473 393.016 777.005C399.352 782.43 406.154 784.777 413.944 787.361L414.092 776.414L405.724 775.172C406.106 767.419 405.962 759.592 406.014 751.828Z" fill="#EEEEEE"/>
<path d="M401.016 683.74C406.022 683.876 411.025 684.111 416.023 684.445L416.038 704.918L425.384 704.993L425.093 684.7C432.498 685.079 439.964 684.971 447.38 685.029L447.479 713.875C447.503 714.327 447.522 714.779 447.538 715.231C447.606 717.214 447.688 718.11 446.308 719.602C445.172 720.101 444.493 720.251 443.247 720.173C440.91 720.025 438.58 720.011 436.239 719.983C435.826 714.574 436.003 709.064 435.979 703.639L427.771 703.593L428.02 719.637C423.997 719.498 419.974 719.337 415.953 719.154L415.838 705.058C410.888 704.906 405.94 704.709 400.993 704.467L401.016 683.74Z" fill="#EEEEEE"/>
<path d="M477.094 280.24C479.168 278.966 489.127 279.808 492.18 279.893L492.169 295.01C492.298 300.34 492.261 305.672 492.057 310.999C487.431 311.009 482.516 311.361 477.936 310.75L476.108 311.168L475.969 310.669C471.465 311.781 465.166 310.929 460.484 310.866C460.398 300.514 460.583 290.15 460.647 279.797C464.176 279.658 473.562 278.5 476.178 280.299L477.094 280.24Z" fill="#2F2E2F"/>
<path d="M460.647 279.797C464.176 279.658 473.562 278.5 476.178 280.299C475.348 290.262 475.955 300.657 475.969 310.669C471.465 311.781 465.166 310.929 460.484 310.866C460.398 300.514 460.583 290.15 460.647 279.797Z" fill="#EEEEEE"/>
<path d="M477.094 280.24C479.168 278.966 489.127 279.808 492.18 279.893L492.169 295.01L477.55 294.87C476.947 290.044 477.669 285.104 477.094 280.24Z" fill="#7E7E7E"/>
<path d="M868.99 480.122C875.931 479.862 885.246 478.813 891.288 482.955C894.223 484.968 896.249 487.957 896.831 491.49C897.453 495.269 896.513 499.448 894.266 502.554C891.652 506.17 888.894 507.268 884.601 507.843C878.082 508.209 868.636 508.346 862.922 505.038C859.908 503.293 857.719 500.512 856.939 497.096C856.11 493.466 856.866 489.394 858.921 486.289C861.501 482.392 864.54 480.975 868.99 480.122Z" fill="#EEEEEE"/>
<path d="M868.934 487.168C873.862 486.849 880.336 486.387 885.057 487.912C886.927 488.516 888.683 489.645 889.498 491.498C890.193 493.078 890.326 495.609 889.5 497.169C888.374 499.294 886.77 500.003 884.618 500.858C879.886 501.137 871.155 501.284 866.845 499.381C865.329 498.711 864.092 497.531 863.541 495.946C862.892 494.081 863.228 492.077 864.182 490.383C865.34 488.328 866.734 487.76 868.934 487.168Z" fill="#0B0B0B"/>
<path d="M809.647 662.522C812.089 662.31 814.151 662.682 816.465 663.475C823.329 665.828 833.872 671.25 837.018 678.095C838.515 681.351 838.579 685.301 837.146 688.588C835.613 692.106 831.975 695.04 828.515 696.488C825.976 696.719 823.66 696.556 821.219 695.762C814.393 693.54 804.292 688.125 801.094 681.432C799.572 678.232 799.402 674.553 800.624 671.226C802.163 667.046 805.78 664.373 809.647 662.522Z" fill="#EEEEEE"/>
<path d="M811.076 669.408C816.299 669.824 824.702 674.521 828.51 678.101C830.02 679.52 831.324 681.454 831.214 683.621C831.078 686.278 828.886 688.139 826.959 689.639C826.296 689.665 825.953 689.698 825.253 689.622C820.501 689.106 810.69 683.158 807.949 679.222C806.853 677.648 806.35 675.977 806.818 674.069C807.357 671.874 809.309 670.559 811.076 669.408Z" fill="#0B0B0B"/>
<path d="M543.464 851.156C546.095 850.962 548.864 851.398 551.008 853.023C556.059 856.85 557.096 863.466 558.043 869.316C558.941 874.862 559.812 881.221 556.137 885.997C553.343 889.629 549.949 890.393 545.669 890.936C543.301 890.719 540.649 890.485 538.624 889.123C533.841 885.907 532.25 879.819 531.236 874.478C530.151 868.769 528.926 861.59 532.577 856.541C535.359 852.692 539.016 851.758 543.464 851.156Z" fill="#EEEEEE"/>
<path d="M542.657 858.079C543.753 858.087 545.079 858.018 546.097 858.469C547.786 859.218 548.815 861.198 549.511 862.791C551.327 866.948 553.327 876.881 551.124 881.005C550.007 883.096 548.559 883.448 546.421 884.06C545.164 884.004 543.702 884.076 542.57 883.451C540.688 882.411 539.644 879.835 538.971 877.921C537.465 873.64 535.854 865.125 538.051 860.995C539.063 859.091 540.727 858.626 542.657 858.079Z" fill="#0B0B0B"/>
<path d="M72.291 508.723C72.459 508.704 72.626 508.673 72.795 508.666C75.864 508.538 78.731 509.343 81.077 511.357C84.077 513.934 85.691 517.709 85.89 521.627C86.065 525.078 85.162 528.426 82.763 530.984C77.642 536.445 67.472 536.916 60.449 537.089C57.5834 537.065 54.6643 536.869 52.2875 535.102C49.0451 532.692 47.3168 529.098 46.7356 525.156C46.2434 521.817 46.7199 518.289 48.8546 515.575C53.6328 509.501 65.161 509.347 72.291 508.723Z" fill="#EEEEEE"/>
<path d="M68.585 516.188C71.384 515.884 73.867 515.543 76.443 516.946C78.061 517.828 79.559 519.225 79.841 521.139C80.061 522.632 79.452 524.162 78.504 525.297C75.223 529.222 68.798 529.306 64.121 529.777C61.491 530.29 58.397 530.341 56.0232 528.998C54.454 528.11 53.1146 526.725 52.8329 524.873C52.6296 523.536 53.195 522.148 53.9841 521.088C57.0921 516.914 63.882 516.769 68.585 516.188Z" fill="#0B0B0B"/>
<path d="M591.782 839.073L592.411 839.185C595.003 843.068 601.863 870.036 603.664 876.678L597.388 878.328C594.851 870.105 593.097 861.64 590.367 853.475C590.001 862.584 589.524 871.687 588.936 880.783L583.804 882.137C579.37 874.706 574.803 865.895 568.855 859.589L570.407 865.11L575.297 884.459L568.825 886.166C566.221 873.246 562.594 860.483 559.749 847.6L567.68 845.622C572.905 854.066 578.128 862.564 583.881 870.66C583.996 860.743 584.563 850.785 584.844 840.865L591.782 839.073Z" fill="#EEEEEE"/>
<path d="M754.041 461.802C754.219 461.935 754.421 462.039 754.575 462.2C756.56 464.276 757.542 470.169 758.283 473.067C766.518 505.255 767.515 540.31 766.289 573.385C763.253 572.978 759.943 571.539 757.002 570.592C757.042 553.279 756.301 536.094 755.851 518.799C755.358 499.834 755.129 480.739 754.041 461.802Z" fill="#EEEEEE"/>
<path d="M732.172 283.912C735.801 285.393 739.603 287.897 742.872 290.091C744.738 291.343 746.734 292.808 748.069 294.628C750.911 298.504 752.528 303.482 754.181 307.954C761.2 326.948 763.69 342.488 767.523 362.155C761.057 356.29 754.941 350.301 749.11 343.799C740.986 333.793 738.682 325.802 734.796 313.705C740.599 320.705 748.06 326.672 754.541 333.092C749.545 316.539 741.849 298.211 732.172 283.912Z" fill="#EEEEEE"/>
<path d="M409.491 802.991C421.442 805.459 433.143 806.806 445.334 807.053C445.362 814.45 445.571 821.904 444.897 829.277C443.215 829.585 441.537 829.86 439.827 829.941C430.202 830.402 416.703 828.801 409.291 822.142C409.238 815.766 409.423 809.368 409.491 802.991Z" fill="#EEEEEE"/>
<path d="M244.68 396.368C244.805 397.339 244.814 396.99 244.73 397.937C242.571 422.433 233.114 446.971 214.014 463.156C210.611 451.846 210.579 440.988 212.091 429.356C213.71 420.15 217.676 411.516 219.694 402.381C221.006 415.343 220.221 428.282 221.213 441.225C230.319 427.422 238.099 411.52 244.68 396.368Z" fill="#EEEEEE"/>
<path d="M520.583 349.35C522.583 354.78 523.723 361.146 523.318 366.949C522.673 376.208 517.429 383.853 510.615 389.836C503.938 395.698 494.021 400.578 484.95 399.788C469.348 398.429 451.023 381.705 441.6 370.203C438.982 366.926 436.524 363.647 434.239 360.128C437.449 363.112 440.251 366.308 443.772 368.975C456.374 378.522 478.578 388.649 494.613 388.854C500.997 388.935 506.852 386.834 511.368 382.232C519.888 373.549 520.61 360.777 520.583 349.35Z" fill="#EEEEEE"/>
<path d="M282.76 810.221C287.694 812.963 294.021 815.258 298.189 819.085C300.151 820.887 301.521 823.223 301.563 825.939C301.622 829.759 299.532 833.402 296.831 835.974C294.055 838.617 291.856 839.016 288.109 838.963C287.91 844.842 287.285 850.756 286.798 856.62L280.448 853.363C280.685 850.369 280.902 847.373 281.099 844.376C281.397 841.608 282.028 838.246 280.891 835.611C280.431 834.545 280.214 834.504 279.205 834.084C275.968 835.256 272.501 844.669 270.707 847.906C268.688 846.891 266.753 845.677 264.804 844.533C270.645 833.027 276.879 821.713 282.76 810.221Z" fill="#EEEEEE"/>
<path d="M285.912 819.316C287.808 820.188 290.066 821.106 291.649 822.486C292.945 823.615 294.207 825.269 294.083 827.082C293.918 829.496 291.893 831.3 290.069 832.605C286.94 831.63 283.977 829.833 281.08 828.303L285.912 819.316Z" fill="#0B0B0B"/>
<path d="M507.546 856.289C510.478 856.051 513.746 855.69 516.672 856.037C519.064 856.321 521.155 857.394 522.642 859.31C525.037 862.397 525.39 866.903 524.788 870.627C524.211 874.198 522.731 875.766 519.842 877.798C522.55 883.179 525.289 888.546 528.058 893.896C525.578 893.973 523.27 894.204 520.819 894.591L515.966 884.877L514.867 882.801C514.04 881.202 513.617 880.123 512.054 879.145C510.727 878.974 510.67 878.938 509.516 879.597C507.528 883.309 509.343 890.661 509.627 894.858C507.348 894.976 505.074 895.298 502.807 895.564L499.832 856.755L507.546 856.289Z" fill="#EEEEEE"/>
<path d="M507.055 862.673C510.228 862.454 514.052 861.826 516.846 863.778C517.668 864.352 518.25 865.225 518.403 866.217C518.683 868.019 517.998 870.331 516.943 871.794C513.936 872.644 511.144 872.909 508.045 873.071C507.492 869.663 507.348 866.116 507.055 862.673Z" fill="#0B0B0B"/>
<path d="M864.337 512.063C866.548 511.932 868.786 512.048 870.897 512.783C874.729 514.118 876.543 516.91 878.302 520.345C883.524 518.134 888.744 516.134 894.118 514.325C894.05 516.905 893.69 519.445 893.366 522.003C889.451 523.405 885.262 524.673 881.533 526.521C879.592 527.482 877.827 528.357 877.095 530.488L877.559 531.355C880.086 533.03 884.406 533.108 887.423 533.598L891.453 534.313C891.089 536.534 890.699 538.75 890.284 540.962C878.249 538.465 865.92 536.727 853.775 534.821C854.185 529.446 854.114 522.62 856.647 517.727C858.427 514.29 860.744 513.094 864.337 512.063Z" fill="#EEEEEE"/>
<path d="M863.89 519.474C865.786 519.347 867.819 519.192 869.524 520.191C870.879 520.985 871.767 522.419 872.086 523.936C872.478 525.796 872.007 528.82 870.937 530.376L869.838 530.334L860.438 528.744C861.017 525.052 861.228 522.312 863.89 519.474Z" fill="#0B0B0B"/>
<path d="M709.587 777.031C710.1 777.004 710.613 776.985 711.127 776.974C714.304 776.918 717.676 777.964 719.957 780.286C723.734 784.131 723.749 789.135 723.541 794.14C726.082 797.883 733.614 800.676 737.636 802.765C735.97 804.422 734.072 805.802 732.215 807.236C728.295 805.388 724.631 802.879 720.601 801.283C718.877 800.601 716.881 799.816 715.093 800.62L714.738 801.614C715.199 803.537 716.441 804.691 717.729 806.135L723.491 813.094C721.707 814.631 719.732 815.966 717.827 817.348C710.233 807.453 701.834 798.018 694.77 787.741C699.434 784.017 704.198 779.615 709.587 777.031Z" fill="#EEEEEE"/>
<path d="M710.769 783.968C712.578 783.913 714.812 784.749 716.103 786.069C716.98 786.965 717.095 788.196 716.905 789.372C716.337 792.899 713.301 794.703 710.679 796.645C708.211 795.831 705.418 790.994 703.786 788.814C706.039 787.056 708.367 785.51 710.769 783.968Z" fill="#0B0B0B"/>
<path d="M113.827 624.005C116.144 627.381 118.509 632.41 119.522 636.384C120.418 639.897 120.116 643.243 118.133 646.337C116.515 648.864 114.08 650.579 111.107 651.083C106.834 651.808 103.529 650.405 100.226 647.888C96.757 652.874 93.197 657.796 89.547 662.652C88.232 660.433 87.024 658.13 85.773 655.872L89.112 651.622C91.15 649.037 95.805 644.156 95.904 640.833L95.24 640.426C90.817 641.079 85.368 644.541 81.227 646.489C80.058 644.375 78.988 642.2 77.887 640.049C90.087 635.335 102.034 629.651 113.827 624.005Z" fill="#EEEEEE"/>
<path d="M110.732 633.076C110.93 633.383 111.125 633.692 111.315 634.003C112.581 636.083 113.936 638.517 113.094 641.024C112.643 642.366 112.051 643.099 110.783 643.74C109.03 644.626 106.971 644.384 105.18 643.843C103.232 641.932 102.067 639.951 100.821 637.566L110.732 633.076Z" fill="#0B0B0B"/>
<path d="M47.5957 415.318C60.05 417.221 72.822 418.584 85.386 419.537C84.755 425.083 84.614 431.813 82 436.824C80.659 439.394 78.597 441.565 75.717 442.31C71.919 443.293 67.862 441.469 64.717 439.506C63.266 438.113 62.626 436.558 61.572 434.888C61.262 434.768 60.974 434.552 60.642 434.529C59.96 434.482 46.5412 440.234 44.6023 440.972L45.0391 433.992C48.4801 432.51 59.692 428.838 61.315 425.759L61.041 424.991C57.4833 422.63 51.1073 422.775 46.8939 422.37C47.1625 420.023 47.3965 417.672 47.5957 415.318Z" fill="#EEEEEE"/>
<path d="M67.65 424.923C71.166 425.112 74.676 425.603 78.173 426.016C77.915 428.857 77.505 431.508 76.27 434.101C74.652 434.874 72.685 435.529 70.868 435.123C69.469 434.811 68.654 434.213 67.907 432.997C66.375 430.499 67.135 427.588 67.65 424.923Z" fill="#0B0B0B"/>
<path d="M372.323 846.473L378.879 848.21C381.324 857.34 383.944 866.735 385.461 876.062C387.698 867.761 389.165 859.117 390.938 850.7L397.23 852.222C394.333 865.006 392.06 878.066 389.719 890.97L382.792 889.758C380.662 880.195 378.374 870.667 375.929 861.18C374.319 869.747 372.579 878.288 370.709 886.802L364.079 885.076C367.636 872.532 369.707 859.252 372.323 846.473Z" fill="#EEEEEE"/>
<path d="M246.739 270.387C247.184 272.944 243.104 283.625 242.101 286.479C236.598 302.131 225.144 320.305 209.697 327.627C208.225 316.859 208.973 305.147 211.782 294.659C214.6 288.372 219.041 282.839 223.067 277.293C220.898 288.358 220.959 299.701 218.807 310.674C228.387 297.632 238.539 284.322 246.739 270.387Z" fill="#EEEEEE"/>
<path d="M86.462 539.63L87.358 539.617C88.752 540.987 88.875 544.755 89.177 546.62C81.787 552.075 74.505 557.674 67.335 563.414C75.403 561.173 83.721 559.523 91.889 557.655L93.291 563.836C80.889 567.337 67.88 569.644 55.2763 572.386C54.6478 570.069 54.1575 567.704 53.617 565.364C61.921 560.363 69.695 553.763 77.402 547.862C68.859 550.19 59.914 551.656 51.256 553.587L50.0579 546.788C62.237 544.815 74.363 542.06 86.462 539.63Z" fill="#EEEEEE"/>
<path d="M182.282 730.812C184.128 732.41 185.812 734.266 187.537 735.996C183.477 745.2 180.329 754.737 176.551 764.056C182.586 757.479 188.571 750.889 194.924 744.614L199.986 749.231C190.515 757.246 182.364 767.191 173.162 775.642L172.598 775.783C170.667 774.674 169.139 772.676 167.631 771.052C170.325 761.993 174.627 753.176 178.386 744.511C171.78 749.913 165.807 756.249 159.607 762.121C158.065 760.517 156.601 758.82 155.104 757.173C159.548 752.952 163.991 748.808 168.298 744.442C172.86 739.818 177.221 734.899 182.282 730.812Z" fill="#EEEEEE"/>
<path d="M251.861 310.907C251.821 314.438 250.015 318.94 249.273 322.502C246.608 335.288 244.726 348.494 240.808 360.966C246.475 354.092 251.431 346.731 256.896 339.716C256.064 349.286 252.097 356.181 247.316 364.261C242.821 371.454 237.565 378.143 231.64 384.212C229.183 365.57 234.638 343.743 242.658 326.978C245.324 321.403 248.639 316.171 251.861 310.907Z" fill="#EEEEEE"/>
<path d="M768.065 718.922C771.538 721.14 774.929 725.46 777.959 728.434C783.794 734.272 789.851 739.885 796.116 745.259L791.777 749.764C781.721 746.839 771.519 744.332 761.433 741.493C768.15 746.668 776.422 753.167 782.089 759.386C781.979 760.854 781.327 761.29 780.407 762.408C779.786 763.017 779.186 763.416 778.437 763.855C773.869 761.803 754.566 743.268 749.625 738.815L755.027 733.943C764.235 736.3 773.523 738.395 782.652 741.047C775.812 735.892 770.343 729.223 763.566 724.002L768.065 718.922Z" fill="#EEEEEE"/>
<path d="M845.827 569.234C858.014 572.712 870.152 576.25 882.433 579.393L880.526 585.799C871.026 586.537 861.293 589.351 851.96 591.367C860.002 592.841 868.293 595.453 876.104 597.887L874.524 603.394L873.844 604.25C869.724 603.564 865.556 601.814 861.562 600.565L838.851 593.663L840.729 587.294C849.169 584.955 858.219 583.734 866.821 581.968C859.287 579.701 851.66 577.699 844.078 575.599L845.827 569.234Z" fill="#EEEEEE"/>
<path d="M759.893 297.408C760.212 297.643 760.562 297.88 760.851 298.159C772.062 308.968 803.862 386.256 805.055 402.111C801.118 396.207 796.871 390.502 793.458 384.264C784.457 367.814 776.995 343.606 770.202 325.54C767.099 317.285 762.948 309.371 760.026 301.081C759.526 299.661 759.475 298.846 759.893 297.408Z" fill="#EEEEEE"/>
<path d="M867.998 448.595C868.218 448.588 868.438 448.576 868.658 448.574C871.955 448.539 875.858 449.435 878.244 451.848C881.989 455.635 881.675 461.106 881.646 466.01L896.111 466.009L896.059 472.986L885.375 472.94L858.022 472.917C857.983 466.976 856.308 458.314 859.731 453.185C861.741 450.173 864.624 449.323 867.998 448.595Z" fill="#EEEEEE"/>
<path d="M866.869 456.068C868.479 455.967 870.427 455.67 871.939 456.382C873.43 457.085 874.658 458.597 875.157 460.157C875.704 461.865 875.608 464.159 874.784 465.743L873.625 465.985L864.025 465.99C863.98 464.569 863.922 463.135 863.995 461.714C864.135 459.03 864.874 457.823 866.869 456.068Z" fill="#0B0B0B"/>
<path d="M690.012 302.876C694.291 307.905 703.502 342.006 704.745 349.745C705.852 356.632 706.068 363.49 706.232 370.445C700.07 366.378 695.443 362.177 690.917 356.331C684.688 346.855 684.699 336.59 682.047 325.954C685.999 332.566 689.872 339.145 694.064 345.614C692.145 331.454 692.467 316.976 690.012 302.876Z" fill="#EEEEEE"/>
<path d="M338.619 835.796C341.081 836.345 343.468 837.149 345.87 837.91C344.312 850.907 344.766 865.274 343.975 878.472L337.455 876.738C337.496 873.665 337.831 870.563 338.067 867.498C335.529 866.812 333.037 865.873 330.547 865.028C329.564 864.623 328.968 864.329 327.897 864.495C326.928 865.249 326.321 865.827 325.683 866.884C324.732 868.46 323.692 869.951 322.64 871.461L316.624 868.904C323.522 857.625 331.468 846.929 338.619 835.796Z" fill="#EEEEEE"/>
<path d="M338.751 846.902C340.143 848.904 338.603 858.079 338.36 860.895L333.143 859.232L331.959 858.696C331.98 855.559 336.924 849.638 338.751 846.902Z" fill="#0B0B0B"/>
<path d="M658.628 810.902L659.049 811.026C661.855 813.778 674.16 839.507 676.444 844.678L670.523 847.633L663.169 833.036C659.609 834.818 656.078 836.66 652.579 838.56C654.977 843.461 657.448 848.325 659.992 853.152L654.642 855.81L653.567 855.88C651.366 852.771 649.84 848.439 648.14 845.001C644.274 837.188 640.197 829.483 636.485 821.595L642.707 818.911L649.622 832.551C653.105 830.817 656.607 829.125 660.129 827.474C657.877 822.79 655.555 818.19 652.875 813.733L658.628 810.902Z" fill="#EEEEEE"/>
<path d="M126.574 649.499C128.235 651.022 129.193 653.472 130.223 655.459C124.28 658.966 106.365 666.387 103.765 671.998C103.074 673.489 103.084 675.087 103.792 676.574C104.314 677.672 105.199 678.173 106.339 678.464C111.773 679.853 130.173 668.048 135.357 665.123C136.517 667.237 138.041 669.222 137.696 671.689L135.968 672.783C128.353 676.453 113.248 687.857 105.132 685.773C102.3 685.046 100.182 683.082 98.717 680.613C96.803 677.386 95.679 673.565 96.791 669.863C99.275 661.599 118.911 653.641 126.574 649.499Z" fill="#EEEEEE"/>
<path d="M202.123 757.099C205.488 756.601 207.945 757.077 210.858 758.892C214.404 761.1 217.56 764.668 218.423 768.85C218.977 771.535 218.42 774.975 216.911 777.261C216.768 777.245 216.622 777.248 216.482 777.213C214.941 776.833 212.036 774.364 211.26 773.009C211.785 771.407 212.418 769.673 211.798 767.993C211.26 766.537 209.96 765.566 208.55 765.041C206.424 764.248 204.034 764.475 202.044 765.535C198.148 767.611 191.186 776.099 189.955 780.227C189.463 781.876 189.258 784.138 190.321 785.62C190.932 786.473 192.002 786.989 192.994 787.233C195.006 787.728 197.607 787.413 199.354 786.279C200.475 785.552 201.085 784.574 201.361 783.289L200.583 782.091C199.77 781.524 199.163 780.988 198.509 780.241C198.725 777.999 200.672 776.309 202.087 774.609L210.58 783.865C208.386 786.287 206.148 788.995 203.528 790.951C200.315 793.351 196.744 794.663 192.711 793.964C189.696 793.47 187.038 791.708 185.408 789.125C183.329 785.924 182.672 782.005 183.593 778.302C185.571 770.369 195.388 761.226 202.123 757.099Z" fill="#EEEEEE"/>
<path d="M87.424 572.063C89.345 571.99 91.052 572.057 92.821 572.901C96.264 574.543 98.525 577.935 99.635 581.488C100.696 584.885 100.578 589.157 98.73 592.277C97.89 593.695 97.013 594.216 95.463 594.631C93.717 594.492 91.82 592.435 90.485 591.336C92.206 589.531 94.386 586.918 94.053 584.227C93.85 582.588 93.038 581.175 91.726 580.163C90.499 579.217 88.615 579.116 87.144 579.505C81.56 580.981 85.059 591.463 82.055 595.916C79.384 599.877 74.903 600.428 70.572 601.203C67.37 600.528 65.071 599.45 62.974 596.846C60.591 593.886 59.339 589.756 59.829 585.969C60.405 581.528 62.757 579.322 66.113 576.734L70.77 581.824C69.512 582.831 68.177 583.913 67.265 585.262C66.455 586.461 66.039 588.006 66.319 589.44C66.62 590.982 67.9 593.225 69.41 593.848C70.516 594.305 72.509 594.112 73.585 593.642C77.773 591.812 76.009 582.058 78.01 578.228C80.061 574.302 83.473 573.252 87.424 572.063Z" fill="#EEEEEE"/>
<path d="M786.745 699.546C788.361 699.383 790.183 699.354 791.777 699.676C793.097 699.942 793.432 700.418 794.056 701.534C794.121 703.498 792.761 705.135 791.759 706.741C789.626 706.21 787.487 705.714 785.459 706.859C783.917 707.73 782.328 709.482 781.986 711.268C781.638 713.092 781.962 714.113 783.044 715.574C787.44 717.877 792.336 712.693 796.181 710.617C798.124 709.568 800.442 709.158 802.582 708.686C803.32 708.906 804.05 709.122 804.769 709.398C808.04 710.658 810.635 712.861 811.978 716.16C813.273 719.343 812.931 722.879 811.485 725.953C809.654 729.845 806.347 732.682 802.357 734.161C799.016 734.106 795.95 733.655 792.677 733.001C793.659 731.603 794.711 729.579 795.931 728.426C796.882 727.527 797.708 727.468 798.964 727.429C799.782 727.404 800.796 727.44 801.578 727.178C803.365 726.578 804.997 725.052 805.797 723.346C806.46 721.931 806.443 719.403 805.682 717.993C805.303 717.289 804.9 716.724 804.133 716.46C800.08 715.066 793.669 720.61 790.069 722.188C787.375 723.369 784.14 723.917 781.355 722.711C778.655 721.542 777.086 719.048 776.045 716.409C775.012 713.793 774.516 711.224 775.729 708.577C777.86 703.93 782.214 701.352 786.745 699.546Z" fill="#EEEEEE"/>
<path d="M735.831 752.846C739.965 755.24 753.25 770.501 755.915 774.904C756.775 776.325 757.236 777.955 757.694 779.539C757.052 783.355 755.989 787.098 753.036 789.816C750.545 792.109 746.907 793.316 743.539 793.02C735.279 792.295 725.522 778.38 720.113 772.297L718.08 769.64C719.857 768.356 721.463 766.812 723.099 765.355C726.732 769.551 738.181 784.266 742.777 785.465C744.729 785.974 747.259 785.862 748.955 784.65C750.006 783.9 750.758 783.057 750.918 781.725C751.519 776.739 734.891 761.36 730.979 757.344L735.831 752.846Z" fill="#EEEEEE"/>
<path d="M44.0613 449.043C56.7042 449.455 69.411 449.618 82.03 450.455C82.105 457.63 81.845 464.818 81.681 471.991L75.054 471.986C74.932 467.004 75.088 462.009 75.165 457.026L67.375 456.935C66.688 457.036 67.099 456.917 66.234 457.525C65.623 461.201 65.957 465.248 65.987 468.983L59.028 469.002C59.232 464.708 59.406 460.413 59.55 456.117L50.5559 456.025C50.4305 461.165 50.1168 466.31 49.9577 471.453L43.4675 471.39C43.7435 463.943 43.9415 456.494 44.0613 449.043Z" fill="#EEEEEE"/>
<path d="M837.469 598.572C839.548 599.095 841.578 599.915 843.597 600.634L837.879 615.229L846.033 618.461C847.883 614.402 849.296 610.049 850.868 605.87L857.122 608.539C855.329 612.552 853.608 616.596 851.958 620.669L859.956 623.959C861.758 619.301 863.551 614.575 865.653 610.045L871.556 612.402C869.103 619.426 866.175 626.338 863.455 633.265C852.185 628.286 840.807 623.557 829.328 619.08C831.679 612.178 834.406 605.19 837.469 598.572Z" fill="#EEEEEE"/>
<path d="M701.928 396.844C704.629 401.024 706.725 405.871 709.13 410.26C713.201 417.687 717.95 425.171 721.121 433.026C721.062 424.845 719.705 416.882 719.333 408.742C722.414 418.334 725.052 428.705 726.836 438.62C727.946 446.162 728.039 453.789 729.36 461.322C713.31 440.136 702.926 424.232 701.928 396.844Z" fill="#EEEEEE"/>
<path d="M680.902 797.924C682.508 798.715 683.67 801.576 684.557 803.125C680.78 805.411 676.73 807.392 672.845 809.5L677.265 816.96C680.888 815.199 684.386 813.136 687.906 811.176C689.11 812.981 690.1 814.939 691.139 816.842C687.716 818.72 684.284 820.58 680.842 822.423C682.379 825.424 684.224 828.261 685.995 831.127C689.3 829.71 695.748 824.812 698.871 824.763L701.811 829.486C696.158 833.585 689.677 836.848 683.602 840.279C676.703 829.469 670.384 818.223 663.895 807.16C669.509 803.993 675.234 800.994 680.902 797.924Z" fill="#EEEEEE"/>
<path d="M260.226 796.719C265.866 800.247 271.478 803.818 277.063 807.433L274.08 812.891C270.289 810.405 266.544 807.889 262.508 805.81L257.842 814.012C260.836 816.137 264.181 817.936 267.33 819.835L263.579 825.565C260.57 823.486 257.541 821.511 254.402 819.634L251.23 824.792L249.446 828.023C253.137 830.544 257.04 832.805 260.846 835.151L257.499 840.69C251.571 837.666 245.851 834.251 240.378 830.465C245.253 819.799 254.071 807.146 260.226 796.719Z" fill="#EEEEEE"/>
<path d="M137.435 680.031C140.447 679.925 143.304 681.029 145.656 682.887C148.393 685.049 150.121 688.606 150.428 692.057C150.883 697.167 148.483 700.28 145.334 703.898L140.928 697.781C141.997 696.545 143.2 695.298 143.728 693.722C144.315 691.972 144.225 690.816 143.417 689.178C142.765 688.71 142.185 688.288 141.399 688.077C137.263 686.964 132.799 689.466 129.343 691.497C125.094 693.994 120.245 696.731 118.956 701.779C119.802 703.602 120.717 705.692 122.831 706.327C125.088 707.004 127.093 705.71 128.979 704.665C130.284 706.835 131.518 709.057 132.782 711.251C131.303 711.901 129.795 712.588 128.254 713.074C125.333 713.997 121.485 713.508 118.803 712.072C116.003 710.572 114.175 708.054 113.306 705.027C112.348 701.694 112.569 698.205 114.303 695.165C118.077 688.552 130.274 681.961 137.435 680.031Z" fill="#EEEEEE"/>
<path d="M60.797 477.701C65.249 477.023 70.898 477.098 75.089 478.791C78.367 480.115 81.093 482.62 82.43 485.918C83.558 488.7 83.665 491.913 82.454 494.686C80.5 499.163 76.536 501.053 72.252 502.664L72.04 495.38C72.107 495.349 72.174 495.316 72.243 495.287C73.524 494.749 74.829 494.306 75.819 493.288C76.607 492.478 77.262 491.317 77.13 490.16C76.984 488.875 76.344 488.001 75.374 487.205C71.664 484.159 67.747 484.405 63.282 484.707C60.22 484.922 56.9384 485.038 53.9759 485.856C51.7502 486.471 50.0588 487.3 48.9241 489.38C48.6727 490.868 48.9879 491.905 49.8269 493.123C51.5148 495.573 53.3254 495.861 56.1426 496.329L56.148 503.973C52.8573 503.298 49.9498 502.61 47.1973 500.532C44.6043 498.575 42.7543 495.96 42.3346 492.687C41.9129 489.398 43.1811 486.036 45.3313 483.571C49.4004 478.905 55.0106 478.206 60.797 477.701Z" fill="#EEEEEE"/>
<path d="M270.173 347.332C272.982 355.038 268.514 378.275 266.964 386.906C273.384 380.752 279.327 373.267 283.697 365.544C282.758 371.865 281.396 377.1 278.752 382.958C278.228 383.991 277.667 385.006 277.07 385.999C274.226 390.662 268.392 398.71 262.892 399.991C261.509 399.64 261.151 399.581 260.289 398.339C254.369 389.805 267.068 357.403 270.173 347.332Z" fill="#EEEEEE"/>
<path d="M234.996 784.066C236.937 783.827 238.61 783.75 240.521 784.263C244.338 785.287 247.491 787.295 249.383 790.851C251.647 795.106 250.915 799.017 249.631 803.378C247.773 802.479 245.969 801.718 244.452 800.283C244.229 797.685 243.81 794.615 242.398 792.37C241.789 791.402 240.953 790.471 239.757 790.325C238.405 790.16 237.125 790.941 236.104 791.739C232.551 794.515 225.687 803.821 225.233 808.452C225.042 810.401 225.795 811.499 226.931 812.929C228.022 813.537 228.796 813.798 230.032 813.975C230.909 813.593 231.848 813.147 232.782 812.924C235.343 812.311 237.521 814.409 239.499 815.768C238.434 817.041 237.341 818.303 235.944 819.228C233.532 820.828 230.215 821.043 227.461 820.35C224.158 819.519 221.451 817.52 219.834 814.511C218.279 811.616 218.111 808.728 219.042 805.606C221.239 798.239 228.112 787.624 234.996 784.066Z" fill="#EEEEEE"/>
<path d="M425.451 754.455C429.228 754.848 433.009 754.962 436.802 755.097L436.853 761.034L448.119 761.023C448.542 768.249 448.481 775.493 448.502 782.728C444.368 782.7 440.229 782.556 436.096 782.466L436.168 773.014L425.487 773.041L425.451 754.455Z" fill="#EEEEEE"/>
<path d="M822.074 632.931L828.13 635.61C826.219 640.615 823.287 645.376 820.869 650.167L829.487 654.124L834.916 642.852C836.976 643.809 839.028 644.78 841.075 645.765C839.117 649.432 837.287 653.165 835.589 656.959L844.876 661.198L850.162 663.503L847.023 669.763C835.31 664.463 823.788 658.748 812.071 653.449C814.955 646.447 818.623 639.667 822.074 632.931Z" fill="#EEEEEE"/>
<path d="M612.105 406.368C613.799 408.225 614.285 413.191 614.663 415.683C618.889 443.514 611.218 465.171 594.999 487.388C594.571 488.005 594.114 488.457 593.582 488.983C593.318 486.179 596.897 477.921 597.916 474.878C605.384 452.59 611.593 430.038 612.105 406.368Z" fill="#EEEEEE"/>
<path d="M574.268 381.427C575.08 382.708 575.007 383.732 575.01 385.23C575.055 406.346 569.895 439.539 559.6 458.109C556.598 463.523 552.995 467.713 548.539 471.986C548.15 470.929 548.279 471.129 548.663 470.143C555.013 453.83 561.454 436.906 566.103 420.026C569.572 407.429 572.046 394.302 574.268 381.427Z" fill="#EEEEEE"/>
<path d="M854.902 417.101C864.267 419.647 873.237 424.855 882.984 425.805C886.53 426.15 890.396 425.658 893.95 425.42L894.14 432.835C884.465 433.356 879.676 434.455 871.101 438.96C866.315 441.467 861.542 443.973 856.643 446.257C856.54 443.73 856.332 441.213 856.134 438.692C862.021 435.819 867.884 432.897 873.893 430.285C867.66 428.234 861.304 426.461 855.022 424.556L854.902 417.101Z" fill="#EEEEEE"/>
<path d="M696.997 273.392C699.344 275.631 701.956 282.555 703.901 285.808C706.901 290.899 710.444 295.65 714.467 299.978C714.683 292.601 715.418 285.179 716.243 277.847C719.278 286.213 722.374 294.503 724.812 303.068C726.099 308.761 727.754 314.354 729.36 319.963C726.086 318.414 722.897 316.825 719.984 314.65C707.318 305.195 699.28 288.818 696.997 273.392Z" fill="#EEEEEE"/>
<path d="M491.772 857.243C493.082 857.031 492.439 856.995 493.701 857.339C494.702 859.133 494.46 861.481 494.499 863.491C489.972 863.551 485.435 863.799 480.91 863.967L481.278 873.823C485.102 873.483 488.988 873.478 492.826 873.356L493.061 879.959L481.315 880.041L481.522 889.125C481.537 891.49 481.779 893.869 481.946 896.228L475.034 896.587C474.899 883.59 474.262 870.557 473.834 857.565C479.823 857.562 485.787 857.516 491.772 857.243Z" fill="#EEEEEE"/>
<path d="M428.865 856.261C431.579 856.555 434.294 856.834 437.011 857.099C439.007 862.022 441.059 866.922 443.166 871.799C445.426 866.947 448.1 862.277 450.656 857.577C453.229 857.934 455.855 858.061 458.446 858.27C455.46 863.616 452.221 868.838 449.073 874.091C444.913 881.067 445.24 887.911 444.933 895.77C442.608 895.577 440.303 895.249 437.992 894.941C438.347 890.572 438.981 885.959 438.642 881.59C437.987 873.168 431.892 864.194 428.865 856.261Z" fill="#EEEEEE"/>
<path d="M101.895 596.096C103.352 596.786 110.61 616.555 112.135 620.176L105.495 622.358C104.496 619.259 103.087 616.241 101.826 613.238C95.329 615.823 88.71 618.117 82.129 620.48C78.889 621.653 75.66 622.858 72.442 624.092L69.701 617.429C79.603 613.621 89.849 610.582 99.826 606.938C98.598 603.881 97.525 600.812 96.513 597.678L101.895 596.096Z" fill="#EEEEEE"/>
<path d="M631.343 824.01L632.187 824.167C633.645 825.773 634.236 827.913 634.996 829.913L626.041 833.392C629.616 843.307 633.895 853.146 638.003 862.857L631.507 865.455L628.746 858.379C625.758 850.839 622.842 843.258 619.504 835.864C616.617 837.06 613.628 838.056 610.685 839.11L608.392 832.942C616.112 830.206 623.717 827.005 631.343 824.01Z" fill="#EEEEEE"/>
<path d="M852.975 538.737L859.182 540.511C858.631 543.834 857.949 547.101 857.198 550.384C867.064 552.601 876.959 554.688 886.88 556.643L885.267 563.761C881.638 562.753 877.926 561.96 874.262 561.083L855.88 556.957L853.355 566.829L846.737 565.149C849.081 556.417 850.966 547.551 852.975 538.737Z" fill="#EEEEEE"/>
<path d="M306.594 822.239C314.093 826.118 321.932 829.245 329.756 832.394L327.326 838.541C324.588 837.271 321.785 836.153 318.995 835.005C315.645 842.34 312.743 849.898 309.723 857.374L306.623 865.001L300.276 862.534C304.706 852.661 308.571 842.422 312.713 832.417C309.842 830.911 306.803 829.745 303.809 828.507L306.594 822.239Z" fill="#EEEEEE"/>
<path d="M401.765 852.826C410.061 853.876 418.255 855.703 426.615 856.227C426.3 858.373 426.135 860.549 425.922 862.707L416.887 861.833L413.798 885.381C413.173 887.795 413.14 890.816 412.865 893.322C410.703 893.124 408.523 893.021 406.356 892.875C406.776 882.217 408.789 871.314 410.214 860.731L400.792 859.233C401.187 857.112 401.456 854.961 401.765 852.826Z" fill="#EEEEEE"/>
<path d="M670.61 341.404C670.835 341.634 671.09 341.838 671.285 342.095C672.694 343.949 673.872 347.906 674.741 350.203C680.649 365.812 681.749 374.929 681 391.303C676.364 387.828 672.794 384.398 669.237 379.828C665.209 373.88 663.047 367.177 660.73 360.448C665.099 364.512 668.911 369.011 672.816 373.512C672.16 362.768 671.622 352.139 670.61 341.404Z" fill="#EEEEEE"/>
<path d="M155.439 698.447C160.411 702.727 166.139 712.037 170.251 717.608L165.131 721.657C163.244 719.606 161.664 717.243 160.014 715C153.798 718.666 147.955 723.929 142.263 728.4L135.43 733.807L131.096 728.924C139.149 722.263 147.273 715.635 155.862 709.671L150.766 702.608C152.264 701.16 153.87 699.818 155.439 698.447Z" fill="#EEEEEE"/>
<path d="M645.185 504.136C651.23 503.551 658.098 505.207 663.583 507.705C677.685 514.128 683.3 523.6 688.543 537.383C686.505 534.527 684.434 531.766 682.164 529.089C667.026 515.717 650.927 509.174 630.673 508.931C635.443 506.931 640.068 505.027 645.185 504.136Z" fill="#EEEEEE"/>
<path d="M714.979 475.327C720.974 483.486 729.461 532.987 730.961 544.583C719.264 533.281 715.846 491.972 714.979 475.327Z" fill="#EEEEEE"/>
<path d="M647.483 416.385C647.958 416.699 648.093 416.766 648.564 417.21C664.588 432.323 674.783 460.694 676.601 482.194C671.516 476.99 661.196 447.007 657.615 438.452C654.531 430.965 651.151 423.604 647.483 416.385Z" fill="#EEEEEE"/>
<path d="M571.866 338.724C583.684 341.454 596.764 347.613 607.263 353.618C618.492 360.041 631.019 370.644 634.591 383.671C632.005 382.373 628.829 376.306 626.876 373.843C618.522 363.309 606.289 354.717 593.304 351.113C587.378 349.468 581.234 348.645 575.266 347.137C573.746 344.382 572.805 341.711 571.866 338.724Z" fill="#EEEEEE"/>
<path d="M359.015 606.033C361.667 606.601 364.328 606.901 367.019 607.211L366.97 641.403C364.236 640.822 361.651 640.036 359.001 639.164C358.712 628.152 359 617.053 359.015 606.033Z" fill="#EEEEEE"/>
<path d="M360.482 842.497C362.667 843.017 364.825 843.648 366.988 844.255C363.748 856.564 359.751 868.761 356.09 880.957C353.911 881.024 351.645 880.203 349.547 879.648C352.916 867.196 356.783 854.855 360.482 842.497Z" fill="#EEEEEE"/>
<path d="M173.317 721.02C175.058 722.566 176.567 724.48 178.122 726.217C168.32 733.965 159.558 743.006 149.883 750.918C148.299 750.535 146.132 747.576 145.014 746.353L173.317 721.02Z" fill="#EEEEEE"/>
<path d="M524.006 292.404C525.507 293.828 526.643 296.191 527.756 297.987C538.221 314.88 534.641 327.174 541.194 343.77C540.776 343.618 540.673 343.597 540.236 343.337C536.419 341.069 533.58 337.175 531.937 333.122C529.383 326.818 529.185 319.434 528.048 312.756C526.888 305.946 525.424 299.165 524.006 292.404Z" fill="#EEEEEE"/>
<path d="M745.359 743.844C749.69 747.009 753.502 751.705 757.227 755.579C762.059 760.61 766.968 765.568 771.953 770.448L767.189 775.15C763.283 772.706 745.267 752.732 740.882 748.214L745.359 743.844Z" fill="#EEEEEE"/>
<path d="M460.849 247.506L475.979 247.503L476.016 263.792C470.991 263.884 465.964 263.892 460.938 263.815C460.78 258.385 460.855 252.938 460.849 247.506Z" fill="#555455"/>
<path d="M514.62 266.823C522.759 268.681 535.383 275.345 541.19 281.556C548.334 289.197 550.294 298.998 549.918 309.181C547.858 305.022 547.545 300.097 545.246 295.826C540.341 286.711 532.595 283.052 524.823 276.854C521.072 273.863 517.855 270.346 514.62 266.823Z" fill="#EEEEEE"/>
<path d="M382.989 680.94L390.033 682.247L390.052 715.149C387.856 714.573 385.536 714.271 383.76 712.778C381.847 709.039 382.954 686.524 382.989 680.94Z" fill="#EEEEEE"/>
<path d="M462.133 694.739L471.004 694.53C471.029 698.616 471.999 715.514 470.377 717.933L462.474 719.144L462.133 694.739Z" fill="#EEEEEE"/>
<path d="M529.368 223.925C529.414 223.961 529.461 223.994 529.504 224.032C541.292 234.477 544.416 247.383 546.342 262.329C546.866 266.4 547.61 270.457 547.95 274.547C543.201 267.867 539.924 252.052 537.046 243.79C534.716 237.099 531.881 230.555 529.368 223.925Z" fill="#EEEEEE"/>
<path d="M543.336 458.439C542.947 463.655 539.275 473.72 537.146 478.656C533.465 487.195 528.354 491.664 519.792 495.075C519.665 493.56 525.746 486.474 526.983 484.603C532.659 476.017 537.833 467.131 543.336 458.439Z" fill="#EEEEEE"/>
<path d="M510.506 612.036L511.545 612.377C512.243 614.903 512.337 640.488 511.689 642.599C510.481 643.862 509.777 643.952 508.139 644.47L507.208 644.287C505.861 641.728 506.459 617.544 506.873 613.434C508.009 612.223 508.902 612.334 510.506 612.036Z" fill="#EEEEEE"/>
<path d="M465.023 619.008C466.827 618.969 468.492 618.845 470.227 619.4C471.452 628.654 470.557 639.008 470.569 648.389C468.801 648.484 466.935 648.764 465.261 648.093C463.992 639.579 464.986 627.86 465.023 619.008Z" fill="#EEEEEE"/>
<path d="M491.448 685.681L491.757 686.058C492.524 690.278 492.365 709.118 491.803 713.983C490.897 715.138 488.868 715.495 487.509 715.921C486.386 713.96 486.817 689.553 487.202 686.482C488.486 685.723 489.979 685.808 491.448 685.681Z" fill="#EEEEEE"/>
<path d="M639.189 529.358C642.322 530.054 646.094 532.026 648.811 533.753C657.517 539.288 660.344 547.107 662.523 556.725C657.042 552.856 653.036 545.717 648.922 540.461C645.869 536.561 642.628 532.918 639.189 529.358Z" fill="#EEEEEE"/>
<path d="M380.027 611.355C381.483 611.625 382.836 611.615 383.999 612.561C385.063 622.861 384.22 633.905 384.177 644.287C382.717 644.028 381.599 643.784 380.282 643.042C378.986 635.52 379.988 619.755 380.027 611.355Z" fill="#EEEEEE"/>
<path d="M462.35 758.062C463.759 757.967 465.028 757.959 466.434 758.078C467.005 760.362 467.169 776.333 466.473 778.75C465.958 780.538 465.091 780.612 463.569 781.393C462.722 781.612 462.531 781.688 461.657 781.453C460.339 778.539 460.826 774.168 460.851 771.023C460.877 767.759 460.053 760.326 462.35 758.062Z" fill="#EEEEEE"/>
<path d="M487.706 621.515C489.322 621.425 490.598 621.342 492.165 621.872C493.16 628.722 492.78 639.252 492.324 646.289C491.309 646.519 490.365 646.707 489.323 646.766C488.17 646.831 488.65 647.001 487.821 646.274C486.811 638.327 487.484 629.552 487.706 621.515Z" fill="#EEEEEE"/>
<path d="M222.802 493.126C223.354 496.126 222.841 499.597 222.492 502.603C220.864 516.633 216.684 528.908 209.631 541.093C209.501 539.348 221.322 498.821 222.802 493.126Z" fill="#EEEEEE"/>
<path d="M660.463 701.866C660.848 701.863 661.233 701.868 661.618 701.88C663.671 701.955 665.315 702.635 666.673 704.199C667.774 705.465 668.235 707.142 668.092 708.799C667.862 711.471 666.593 712.921 664.612 714.585C662.334 714.55 660.393 714.065 658.712 712.417C657.504 711.233 656.983 709.612 657.048 707.94C657.154 705.224 658.631 703.698 660.463 701.866Z" fill="#EEEEEE"/>
<path d="M661.585 638.837C663.816 639.352 665.822 640.249 667.225 642.139C668.358 643.664 668.693 645.367 668.301 647.216C667.868 649.253 666.238 650.578 664.627 651.7C662.436 651.486 660.503 650.979 658.945 649.311C657.793 648.077 657.272 646.462 657.453 644.785C657.759 641.948 659.424 640.46 661.585 638.837Z" fill="#EEEEEE"/>
<path d="M639.718 696.915C641.667 697.076 643.458 697.584 644.934 698.946C646.217 700.131 647.036 701.944 646.888 703.713C646.673 706.265 645.367 707.844 643.403 709.346C643.251 709.342 643.098 709.339 642.945 709.333C640.629 709.238 638.805 708.732 637.259 706.889C636.144 705.561 635.727 703.901 635.945 702.193C636.281 699.557 637.702 698.401 639.718 696.915Z" fill="#EEEEEE"/>
<path d="M639.772 635.448C641.628 635.528 643.314 635.73 644.868 636.845C646.309 637.878 647.315 639.379 647.405 641.197C647.536 643.843 645.981 645.563 644.161 647.237C641.633 647.01 639.673 646.326 638.046 644.279C637.001 642.964 636.394 641.476 636.656 639.769C636.972 637.712 638.142 636.583 639.772 635.448Z" fill="#EEEEEE"/>
<path d="M628.173 474.978C628.181 475.14 628.209 475.303 628.197 475.466C627.901 479.578 617.891 495.32 615.131 498.915C613.681 500.803 611.946 502.43 610.22 504.06C609.723 499.553 624.644 480.079 628.173 474.978Z" fill="#EEEEEE"/>
<path d="M481.197 752.666C481.986 752.779 482.613 752.961 483.352 753.259C483.615 753.909 483.638 753.9 483.806 754.71C484.404 757.606 484.462 767.5 483.358 770.166C483.143 770.686 482.421 771.4 482.062 771.872C481.546 771.836 481.081 771.704 480.58 771.58C480.292 771.004 480.244 770.975 480.074 770.242C479.208 766.505 479.114 755.795 481.197 752.666Z" fill="#EEEEEE"/>
<path d="M393.131 748.836C394.344 749.526 395.457 750.383 396.588 751.197L396.458 770.634C395.757 770.199 394.908 769.743 394.338 769.14C391.412 766.047 393.005 753.013 393.131 748.836Z" fill="#EEEEEE"/>
<path d="M265.748 429.364C266.842 435.372 260.268 455.646 257.549 461.775C256.035 457.302 263.731 434.972 265.748 429.364Z" fill="#EEEEEE"/>
<path d="M466.529 807.657C467.53 808.155 467.627 808.156 467.892 809.247C468.711 812.618 468.68 822.616 466.53 825.287L465.406 824.91C465.132 824.267 464.952 823.677 464.89 822.977C464.513 818.73 463.734 810.967 466.529 807.657Z" fill="#EEEEEE"/>
<path d="M390.691 626.702C391.39 627.023 391.854 627.497 392.428 627.999C394.458 632.124 393.099 640.273 392.952 644.848C391.808 644.953 391.958 644.934 391.033 644.51C389.246 639.954 390.539 631.647 390.691 626.702Z" fill="#EEEEEE"/>
</svg>
