<svg width="778" height="840" viewBox="0 0 778 840" fill="none" xmlns="http://www.w3.org/2000/svg">
<path d="M219.753 324.322C220.355 303.098 225.139 282.504 239.969 266.417C248.062 257.639 259.561 251.225 271.675 250.877C283.908 250.526 294.678 256.129 303.292 264.506C322.127 282.822 327.49 308.554 327.992 333.8C321.707 310.66 315.852 290.963 298.094 273.859C305.857 294.387 310.924 315.43 316.094 336.712C306.252 318.922 294.842 304.783 278.99 292.028C292.59 313.564 298.45 338.872 313.176 359.619C293.88 351.103 275.878 339.63 258.791 327.341C267.502 342.744 282.73 355.856 298.153 364.328C318.398 375.449 331.705 378.107 343.829 400.344C329.717 385.7 309.326 373.792 288.657 372.93C273.947 372.316 260.214 377.228 249.402 387.282C237.351 398.49 228.708 416.193 228.017 432.616C228.169 441.116 228.381 448.522 230.751 456.769C225.019 450.873 222.738 445.44 222.826 437.169C222.831 436.727 222.845 436.286 222.865 435.845C221.317 414.553 231.844 394.689 242.069 376.872C241.207 364.129 239.288 353.048 240.916 340.151C232.606 357.49 228.179 377.29 218.659 393.814C218.746 392.685 218.862 391.557 219.007 390.433C220.993 374.769 225.431 359.52 229.152 344.215C233.342 326.98 235.569 308.879 244.474 293.213C249.023 285.209 255.603 279.23 262.783 273.66C258.835 275.214 254.816 276.733 251.093 278.781C233.211 288.615 225.271 305.611 219.753 324.322Z" fill="#FEFEFE"/>
<path d="M228.017 432.616C228.169 441.116 228.381 448.522 230.751 456.769C225.019 450.873 222.738 445.44 222.826 437.169C222.831 436.727 222.845 436.286 222.865 435.845C224.144 438.911 225.597 441.725 227.268 444.596C227.296 440.536 227.418 436.635 228.017 432.616Z" fill="#4C4C4C"/>
<path d="M725.893 633.13L727.387 633.491C729.024 640.96 727.736 654.873 727.726 662.94L727.775 731.77C703.538 739.554 679.376 749.009 655.948 758.94C655.271 759.05 654.86 758.804 654.228 758.578C652.572 750.478 653.946 737.709 653.935 729.124L653.944 653.101C677.911 646.653 701.802 638.894 725.893 633.13Z" fill="#4C4C4C"/>
<path d="M324.061 86.59C331.652 67.039 344.658 45.128 364.66 36.212C376.648 30.868 391.412 30.812 403.583 35.628C423.459 43.493 435.076 62.109 443.044 80.895C444.261 83.781 445.367 86.713 446.361 89.683C437.304 75.103 428.616 63.745 414.681 53.42C423.718 64.422 430.182 77.034 435.035 90.403C427.441 80.708 419.74 70.59 409.426 63.597C415.86 75.93 423.345 89.676 427.266 103.016C417.962 91.611 409.583 84.675 395.703 79.38C402.879 86.642 407.551 93.235 411.215 102.835C404.974 100.141 399.291 99.069 392.547 98.458C415.109 109.489 431.307 119.998 440.669 144.577C435.229 141.537 430.255 135.837 425.231 131.942C417.937 125.806 410.55 120.013 401.952 115.784C384.661 107.279 358.933 104.359 339.822 106.331C333.378 106.996 324.94 109.856 320.049 114.209L320.367 114.995C324.966 114.681 329.264 112.573 333.49 110.858C321.144 119.81 308.543 132.655 305.951 148.232C303.98 160.074 308.651 170.247 312.802 180.975C303.159 167.691 297.578 159.024 300.303 141.879C304.593 114.884 328.57 88.728 343.065 66.216C335.887 72.416 329.616 78.853 324.061 86.59Z" fill="#FEFEFE"/>
<path d="M63.927 113.637C71.719 100.406 79.75 87.244 88.735 74.782C104.209 53.319 140.979 8.31599 166.767 1.54699C172.799 -0.0360084 178.689 0.292991 184.115 3.52099C187.466 5.51399 189.353 8.28799 190.27 12.025C194.258 28.274 186.493 44.29 185.519 60.367C181.859 120.718 214.637 182.078 265.684 214.225C270.592 216.888 275.521 219.141 280.678 221.275C277.135 223.322 273.513 224.968 269.756 226.584C259.458 223.833 246.9 217.178 239.235 209.662C234.15 207.6 229.342 203.387 225.243 199.776C205.164 182.089 190.931 159.424 180.579 134.931C171.563 113.6 163.28 86.864 166.495 63.545C167.255 58.027 175.483 32.573 173.964 29.679C173.558 28.905 171.876 27.716 171.085 27.381C167.316 25.785 162.537 27.796 159.096 29.439C137.589 39.702 121.946 62.197 105.25 78.773C92.508 91.423 78.7 103.401 63.927 113.637Z" fill="#FEFEFE"/>
<path d="M239.235 209.662C246.713 211.276 258.241 215.392 265.684 214.225C270.592 216.888 275.521 219.141 280.678 221.275C277.135 223.322 273.513 224.968 269.756 226.584C259.458 223.833 246.9 217.178 239.235 209.662Z" fill="#4C4C4C"/>
<path d="M533.646 197.768C566.859 160.699 589.392 103.767 586.664 53.668C586.028 41.986 580.33 27.274 583.847 16.045C585.441 10.956 588.869 5.797 593.785 3.422C600.338 0.255005 607.914 1.994 614.411 4.415C655.847 19.857 691.119 78.648 708.651 116.705C705.057 116.384 698.405 107.41 695.436 104.853C677.801 84.792 639.211 31.204 611.934 28.344C609.933 28.135 609.069 28.2 607.38 29.224C606.112 39.205 608.723 50.092 608.074 60.318C605.757 96.781 590.801 140.576 569.289 170.224C565.297 180.769 542.312 207.216 531.682 211.637C529.126 212.7 526.94 212.502 524.413 211.413C522.5 210.587 520.641 209.597 518.795 208.633C524.578 205.569 528.657 202.427 533.367 197.941C533.446 197.866 533.553 197.826 533.646 197.768Z" fill="#FEFEFE"/>
<path d="M533.646 197.768C541.868 198.071 561.841 175.49 569.289 170.224C565.297 180.769 542.312 207.216 531.682 211.637C529.126 212.7 526.94 212.502 524.413 211.413C522.5 210.587 520.641 209.597 518.795 208.633C524.578 205.569 528.657 202.427 533.367 197.941C533.446 197.866 533.553 197.826 533.646 197.768Z" fill="#4C4C4C"/>
<path d="M25.609 365.82C37.239 330.3 47.42 272.32 67.908 242.736C62.241 300.714 52.507 362.111 21.614 412.556C18.049 423.482 8.876 433.938 0.886004 441.977C0.749004 395.74 0.223005 350.014 12.8 305.057C15.214 296.426 17.652 286.782 22.852 279.373C27.872 278.724 39.226 265.041 42.677 260.79C33.948 295.238 28.237 330.381 25.609 365.82Z" fill="#4C4C4C"/>
<path d="M22.852 279.373C21.589 286.573 19.981 293.838 19.177 301.097C17.966 312.044 17.78 323.171 16.832 334.155C14.488 361.3 12.449 387.807 12.825 415.106C17.545 406.767 21.211 396.979 24.157 387.85C23.571 396.105 22.543 404.333 21.614 412.556C18.049 423.482 8.876 433.938 0.886004 441.977C0.749004 395.74 0.223005 350.014 12.8 305.057C15.214 296.426 17.652 286.782 22.852 279.373Z" fill="#FEFEFE"/>
<path d="M72.496 123.905C78.524 118.78 85.966 113.961 92.907 110.155C88.858 135.769 68.749 164.257 59.465 189.619C72.567 174.044 93.649 141.864 108.376 131.996C97.034 162.608 91.025 181.179 70.063 207.095C65.983 212.14 61.183 218.467 55.827 222.168C46.353 237.006 32.299 248.891 18.066 258.917C28.807 216.573 44.772 157.418 72.496 123.905Z" fill="#4C4C4C"/>
<path d="M72.496 123.905C71.968 129.392 63.877 148.963 61.616 155.858C54.205 178.451 47.61 201.314 40.357 223.963C51.397 213.633 59.517 201.297 67.885 188.805C64.475 200.137 60.45 211.275 55.827 222.168C46.353 237.006 32.299 248.891 18.066 258.917C28.807 216.573 44.772 157.418 72.496 123.905Z" fill="#FEFEFE"/>
<path d="M475.573 248.124C487.082 263.45 493.168 283.392 498.76 301.484C498.858 285.076 496.942 268.852 495.589 252.527C510.091 275.187 510.051 306.756 509.473 332.763C509.252 342.678 508.497 352.731 509.247 362.629C520.281 335.692 519.724 305.951 522.621 277.566C528.892 305.304 528.347 331.473 521.843 359.072C517.682 373.93 512.718 389.67 505.251 403.2C503.973 396.37 503.985 389.177 503.642 382.243C502.608 361.318 503.288 337.816 497.997 317.444C495.894 340.725 493.251 379.269 481.667 399.437C479.688 402.884 476.948 405.61 474.15 408.397C479.505 374.321 483.755 339.514 481.447 304.965C480.202 286.335 475.888 267.422 475.582 248.868L475.573 248.124Z" fill="#4C4C4C"/>
<path d="M731.561 412.387C735.812 419.506 737.186 428.373 740.911 435.867C747.294 448.709 756.552 460.56 762.088 473.727C765.758 482.456 764.242 495.399 764.11 504.758C763.704 533.658 760.872 596.864 750.209 623.135L750.175 581.883C749.739 557.335 750.603 514.879 742.852 492.425C742.391 510.564 741.2 528.827 741.116 546.942L729.755 544.822C731.447 500.698 732.049 456.54 731.561 412.387Z" fill="#4C4C4C"/>
<path d="M726.768 570.963L727.25 571.263C729.177 577.526 727.764 608.757 727.752 617.615C702.944 623.501 678.38 631.046 653.843 637.978L653.631 588.225C677.604 581.525 702.44 576.306 726.768 570.963Z" fill="#4C4C4C"/>
<path d="M722.492 265.208C724.784 269.733 725.842 275.526 727.815 280.347C731.158 288.515 736.018 296.323 738.644 304.744C741.435 313.696 742.831 323.436 744.738 332.628C749.131 353.801 753.246 374.986 759.662 395.66C761.094 368.462 758.72 342.202 756.717 315.143C760.636 321.359 765.611 326.383 770.755 331.567C772.77 342.34 774.236 353.208 775.145 364.129C778.491 390.25 777.755 416.618 776.152 442.82C775.312 441.995 774.485 441.158 773.671 440.308C762.307 428.424 753.132 411.94 746.94 396.798C732.747 362.09 721.679 303.02 722.492 265.208Z" fill="#4C4C4C"/>
<path d="M360.838 162.864C359.186 161.504 357.403 159.917 356.086 158.217C354.751 156.494 354.242 155.518 354.444 153.37C356.485 151.384 362.235 150.626 365.223 149.413C362.327 152.507 360.716 153.523 360.861 158.061C361.016 162.915 361.648 167.459 361.517 172.382C362.184 177.103 362.202 182.835 366.078 186.118C368.036 186.917 369.473 186.949 371.488 186.182C374.485 185.041 377.399 182.891 380.08 181.153C378.027 178.861 375.859 175.859 375.161 172.845L375.888 171.936C377.12 172.66 378.435 173.424 379.794 173.877C386.207 176.017 397.144 170.658 402.715 167.584C404.105 165.659 405.062 164.301 407.367 163.432C409.489 163.299 411.884 163.736 413.503 165.237C414.566 166.222 414.388 166.955 414.357 168.318C414.274 172.066 408.031 208.584 406.816 211.591C404.577 217.131 400.623 222.262 396.303 226.338C392.505 229.921 388.033 232.384 384.063 235.676C378.322 238.351 371.874 237.818 365.814 236.828C360.954 231.066 357.19 224.232 353.066 217.919C339.32 196.876 331.459 184.004 326.1 159.091C328.988 163.541 331.76 168.366 336.063 171.602C338.976 173.793 341.826 175.079 345.497 174.534C346.175 174.434 346.098 174.26 346.593 174.684C351.677 179.034 347.947 188.231 349.035 193.708C350.191 199.528 354.159 201.884 358.695 205.005C363.275 204.828 364.566 207.891 368.003 207.334C369.553 205.993 370.748 205.359 371.31 203.308L370.444 202.237C371.55 200.157 376.515 198.794 378.521 196.498C379.23 194.402 379.156 193.928 378.711 191.74L377.943 191.654C373.188 195.282 365.616 199.435 359.99 201.374C358.05 200.981 357.954 201.022 356.57 199.438C358.426 198.648 360.156 197.81 361.888 196.776C364.438 191.855 361.327 187.124 360.712 182.023C360.337 178.915 360.76 175.325 360.908 172.187L360.838 162.864Z" fill="#4C4C4C"/>
<path d="M326.1 159.091C328.988 163.541 331.76 168.366 336.063 171.602C338.976 173.793 341.826 175.079 345.497 174.534C346.175 174.434 346.098 174.26 346.593 174.684C351.677 179.034 347.947 188.231 349.035 193.708C350.191 199.528 354.159 201.884 358.695 205.005L363.874 209.279C370.317 211.81 379.94 207.381 385.071 209.668C384.016 211.62 380.872 212.509 378.917 213.473C378.632 215.442 378.498 216.482 376.894 217.879C376.349 218.355 376.085 218.475 375.505 218.806C378.184 219.045 379.712 218.914 381.952 220.504C382.091 221.821 382.274 221.9 381.435 222.913C380.313 224.268 378.826 225.192 377.23 225.905C380.404 229.023 382.698 231.33 384.063 235.676C378.322 238.351 371.874 237.818 365.814 236.828C360.954 231.066 357.19 224.232 353.066 217.919C339.32 196.876 331.459 184.004 326.1 159.091Z" fill="#FEFEFE"/>
<path d="M363.874 209.279C370.317 211.81 379.94 207.381 385.071 209.668C384.016 211.62 380.872 212.509 378.917 213.473C372.901 213.677 363.547 216.321 357.953 214.08C356.357 213.441 355.968 212.68 355.383 211.159C357.626 209.419 361.046 209.594 363.874 209.279Z" fill="#070706"/>
<path d="M362.224 219.644C366.681 219.121 371.018 218.818 375.505 218.806C378.184 219.045 379.712 218.914 381.952 220.504C382.091 221.821 382.274 221.9 381.435 222.913C380.313 224.268 378.826 225.192 377.23 225.905C374.256 225.937 370.661 226.294 367.78 225.489C364.836 224.668 363.683 222.086 362.224 219.644Z" fill="#070706"/>
<path d="M402.715 167.584C405.08 167.045 407.43 166.177 409.777 167.075C410.603 170.684 406.5 176.514 404.533 179.646C402.113 183.498 399.002 188.711 394.664 190.579C389.098 190.192 384.065 184.769 380.08 181.153C378.027 178.861 375.859 175.859 375.161 172.845L375.888 171.936C377.12 172.66 378.435 173.424 379.794 173.877C386.207 176.017 397.144 170.658 402.715 167.584Z" fill="#FEFEFE"/>
<path d="M286.158 242.522C293.6 240.589 300.335 237.735 307.388 234.731C330.692 242.235 345.498 269.216 368.016 282.498C379.139 292.579 394.07 292.421 402.845 298.656C391.872 299.219 380.877 298.143 370.221 295.464C381.11 303.321 390.629 311.075 404.253 313.587C422.338 311.329 433.554 305.178 444.909 290.493C452.554 280.606 456.284 270.173 459.763 258.382C460.478 278.037 456.089 298.332 442.319 313.214C434.176 322.015 424.54 325.211 412.818 325.598C410.872 325.662 409.02 325.515 407.119 325.085C374.94 314.627 356.108 286.314 333.942 262.842C327.255 255.761 319.333 249.723 312.118 243.175C338.464 282.495 344.267 302.429 353.51 348.646L353.995 349.161C353.027 350.78 352.633 352.243 352.204 354.071L350.57 355.737C348.934 349.302 347.476 342.545 347.333 335.896C344.036 329.411 342.822 320.571 340.576 313.587C329.816 280.127 318.242 258.988 286.158 242.522Z" fill="#FEFEFE"/>
<path d="M459.763 258.382C460.478 278.037 456.089 298.332 442.319 313.214C434.176 322.015 424.54 325.211 412.818 325.598C410.872 325.662 409.02 325.515 407.119 325.085C409.386 325.042 411.944 325.322 413.932 324.117C411.12 321.015 403.716 320.345 399.8 318.114C399.647 318.027 399.496 317.933 399.345 317.843C406.816 318.207 413.369 317.467 420.463 315.031C414.911 315.063 409.681 314.852 404.253 313.587C422.338 311.329 433.554 305.178 444.909 290.493C452.554 280.606 456.284 270.173 459.763 258.382Z" fill="#4C4C4C"/>
<path d="M347.333 335.896C348.728 339.89 350.098 345.975 353.51 348.646L353.995 349.161C353.027 350.78 352.633 352.243 352.204 354.071L350.57 355.737C348.934 349.302 347.476 342.545 347.333 335.896Z" fill="#4C4C4C"/>
<path d="M695.578 346.299C698.348 349.574 700.147 357.348 701.458 361.556C718.107 414.981 712.248 475.66 710.476 530.834C705.628 531.301 698.761 529.571 693.774 528.958L695.578 346.299Z" fill="#4C4C4C"/>
<path d="M358.983 305.723C364.024 308.83 368.56 315.454 372.815 319.702C382.066 328.936 396.136 340.782 407.877 346.675C416.267 350.885 425.309 352.14 434.273 349C450.924 343.167 460.519 326.674 467.805 311.727C464.807 328.115 459.08 347.275 449.971 361.327C445.726 367.875 439.002 375.439 430.906 376.906C423.961 378.164 419.106 375.413 413.539 371.661C399.378 360.675 386.948 347.245 374.692 334.241C379.548 347.278 385.407 359.651 391.775 372.006C397.079 382.294 402.957 392.27 406.677 403.272C378.376 375.942 369.35 342.469 358.983 305.723Z" fill="#4C4C4C"/>
<path d="M592.424 535.635C599.386 534.349 705.16 553.474 722.736 556.395C706.912 559.721 691.124 563.218 675.376 566.887C675.136 566.931 674.895 566.969 674.656 567.019C665.421 568.929 562.019 549.803 545.474 546.261L592.424 535.635Z" fill="#9F9E9F"/>
<path d="M104.537 197.745C105.788 201.899 97.024 268.893 95.528 279.105C105.367 259.884 114.658 238.654 121.625 218.197C123.277 235.873 120.266 255.572 115.764 272.648C113.372 282.574 107.68 292.665 101.442 300.683C97.105 306.26 88 316.915 80.606 317.881C78.985 317.108 78.367 316.668 77.794 314.892C76.32 310.32 77.484 303.437 77.882 298.621C80.766 263.788 90.787 229.763 104.537 197.745Z" fill="#4C4C4C"/>
<path d="M672.772 200.792C674.057 201.74 675.009 203.382 675.905 204.685C694.362 231.53 710.46 285.042 704.597 317.387C684.071 306.287 673.821 282.715 665.214 262.315C659.768 248.007 656.806 232.96 652.18 218.395C665.869 239.062 678.233 260.857 690.656 282.306C687.405 254.742 680.153 227.509 672.772 200.792Z" fill="#4C4C4C"/>
<path d="M581.242 650.523C599.596 654.608 618.561 658.886 637.209 661.252L637.392 759.596C618.202 755.477 599.084 751.024 580.049 746.241L579.97 736.227C595.553 739.942 611.162 743.55 626.794 747.052L626.851 669.355C611.29 665.972 595.528 663.276 579.932 659.972C579.85 657.019 579.2 652.691 581.242 650.523Z" fill="#FEFEFE"/>
<path d="M720.191 153.541C720.407 153.685 720.629 153.822 720.841 153.973C725.235 157.127 728.778 165.924 731.062 170.851C749.054 209.666 761.383 253.834 769.547 295.783C759.014 288.869 751.446 280.477 743.242 271.057C733.077 260.295 726.114 244.81 721.683 230.825C731.409 239.628 739.562 249.159 747.872 259.258C744.412 243.873 738.654 228.977 734.209 213.856C731.074 203.196 729.656 191.959 727.192 181.12C725.089 171.872 721.948 162.86 720.191 153.541Z" fill="#4C4C4C"/>
<path d="M326.495 140.988C329.135 133.458 332.172 127.926 339.71 124.297C348.521 120.055 361.588 120.448 370.635 123.738C382.753 128.144 387.654 138.953 397.669 145.702L387.3 145.989C379.941 146.734 372.271 147.051 365.223 149.413C362.235 150.626 356.485 151.384 354.444 153.37C354.242 155.518 354.751 156.494 356.086 158.217C357.403 159.917 359.186 161.504 360.838 162.864L360.908 172.187C360.76 175.325 360.337 178.915 360.712 182.023C361.327 187.124 364.438 191.855 361.888 196.776C360.156 197.81 358.426 198.648 356.57 199.438C356.517 199.352 356.468 199.262 356.41 199.179C355.63 198.061 354.831 196.947 354.548 195.585C353.027 188.261 353.241 166.482 352.643 157.29C351.013 155.271 347.859 150.234 345.598 149.47C345.299 150.728 345.402 150.884 344.375 151.631C341.358 151.373 338.74 150.723 335.978 149.467C331.509 147.435 328.251 145.827 326.495 140.988Z" fill="#FEFEFE"/>
<path d="M326.495 140.988C329.135 133.458 332.172 127.926 339.71 124.297C348.521 120.055 361.588 120.448 370.635 123.738C382.753 128.144 387.654 138.953 397.669 145.702L387.3 145.989L387.733 145.368L387.199 144.002C381.058 138.823 375.022 135.06 367.593 131.987C361.634 134.522 355.87 136.608 349.468 137.797C342.719 139.052 332.194 137.384 326.495 140.988Z" fill="#4C4C4C"/>
<path d="M687.214 131.425C691.52 133.128 695.685 135.521 699.084 138.686C708.88 147.807 720.149 196.314 720.471 210.402C720.53 212.975 720.397 214.534 718.588 216.436C717.571 216.725 716.533 216.96 715.475 216.745C701.929 213.985 684.252 185.055 677.166 173.591C672.752 166.073 669.937 157.854 666.908 149.718C669.808 150.832 673.337 151.876 675.809 153.796C684.666 160.676 689.817 172.959 695.968 182.201C699.662 187.751 703.833 192.932 708.026 198.11C701.766 175.551 692.451 154.403 687.214 131.425Z" fill="#4C4C4C"/>
<path d="M579.906 569.241C599.066 572.501 618.391 575.326 637.489 578.888L637.362 644.71C618.029 641.304 598.477 638.346 579.327 634.031C579.276 630.847 579.465 627.644 579.582 624.461C595.07 627.852 611.243 629.587 626.932 631.949L626.785 586.521C611.126 583.979 595.481 581.349 579.851 578.632L579.906 569.241Z" fill="#FEFEFE"/>
<path d="M368.016 282.498C367.966 282.202 367.925 281.905 367.867 281.611C366.525 274.828 348.479 254.738 353.525 246.342C355.069 245.696 355.814 245.603 357.379 246.372C362.874 249.072 368.451 259.622 372.399 264.47C376.991 270.111 390.938 284.843 399.067 282.943C402.74 282.084 405.093 278.773 406.809 275.65C411.32 267.438 415.088 258.031 418.551 249.313C419.167 260.982 417.962 271.487 416.943 283.048C425.675 282.418 433.251 280.982 441.04 276.81C429.756 289.269 419.931 296.601 402.845 298.656C394.07 292.421 379.139 292.579 368.016 282.498Z" fill="#4C4C4C"/>
<path d="M666.525 352.357L667.183 352.998C668.97 359.18 669.395 366.473 670.393 372.867C676.64 412.899 676.939 452.061 671.823 492.162L670.958 494.012L670.319 493.46C662.982 466.318 663.519 410.753 664.804 381.549C665.233 371.801 666.267 362.126 666.525 352.357Z" fill="#4C4C4C"/>
<path d="M142.721 250.258C143.016 250.684 143.409 251.057 143.606 251.536C144.28 253.176 139.732 294.236 139.61 299.911C146.04 290.173 155.224 280.489 159.616 269.699C158.834 278.755 158.139 287.667 155.581 296.433C153.278 302.99 150.62 309.177 145.493 314.047C141.425 317.91 137.005 319.154 131.509 319.029C129.71 317.995 128.904 317.591 128.14 315.527C123.934 304.17 137.507 262.399 142.721 250.258Z" fill="#4C4C4C"/>
<path d="M629.434 85.424C638.44 92.625 642.867 104.942 652.321 111.77C654.014 112.993 655.121 113.443 657.124 113.094C659.367 107.854 654.541 93.412 653.092 87.782C659.799 96.589 666.198 105.306 671.687 114.934C673.786 119.92 677.647 127.355 675.628 132.875C675.129 134.238 674.019 135.428 672.622 135.923C668.481 137.391 662.53 134.698 658.887 132.797C640.013 122.946 635.358 104.188 629.434 85.424Z" fill="#4C4C4C"/>
<path d="M638.997 260.672C640.138 261.645 641.078 262.844 641.921 264.08C652.087 278.98 656.754 302.09 653.325 319.626C652.601 323.325 651.076 328.341 647.622 330.362C646.177 331.208 644.579 331.295 643.006 330.764C635.268 328.155 630.203 314.891 627.022 307.993C624.456 301.821 621.712 295.553 620.403 288.978C627.27 300.706 635.391 310.92 643.845 321.52C643.276 300.981 640.582 281.091 638.997 260.672Z" fill="#4C4C4C"/>
<path d="M394.529 124.336C405.008 125.767 414.931 130.701 425.231 131.942C430.255 135.837 435.229 141.537 440.669 144.577C446.572 150.839 457.346 152.423 465.041 155.732C468.928 157.403 473.082 159.767 474.552 164.019C475.096 165.594 474.871 165.812 474.193 167.229C473.401 167.55 472.72 167.821 471.861 167.899C466.369 168.4 453.655 164.448 448.65 161.831C441.518 158.102 437.015 151.252 430.398 146.712C418.568 138.596 405.871 133.568 394.529 124.336Z" fill="#4C4C4C"/>
<path d="M140.121 72.681L140.987 72.767L141.71 73.725C139.115 81.823 130.631 87.252 124.24 92.239C129.001 92.315 133.767 92.704 138.519 93.002C132.165 102.611 126.391 106.389 115.841 110.261C113.277 111.22 108.948 112.41 106.227 112.13C104.072 111.907 103.494 111.104 102.189 109.576C101.642 107.367 101.804 105.54 102.483 103.386C106.893 89.412 127.801 78.855 140.121 72.681Z" fill="#4C4C4C"/>
<path d="M624.707 122.802C626.864 124.733 628.664 127.815 630.35 130.188C639.59 143.203 644.043 155.69 647.039 171.113C646.404 173.38 645.884 175.317 644.563 177.308C643.349 177.945 642.655 178.468 641.252 178.464C635.765 178.448 629.941 171.748 626.314 168.172C621.662 162.714 618.118 157.172 615.013 150.744C621.411 155.899 627.565 161.352 633.453 167.082C632.434 151.733 627.815 137.716 624.707 122.802Z" fill="#4C4C4C"/>
<path d="M508.966 239.178C517.965 240.126 531.024 244.693 539.607 248.213C572.826 261.837 578.563 303.011 591.133 332.617C590.411 332.246 589.809 331.866 589.225 331.292C577.1 319.361 572.644 284.083 556.222 267.336C541.712 252.54 523.719 251.353 508.966 239.178Z" fill="#4C4C4C"/>
<path d="M131.055 118.343C131.852 123.18 127.288 145.479 126.242 152.25C132.694 143.91 139.286 135.79 146.723 128.301C144.181 134.749 142.047 141.265 138.573 147.299C134.924 153.333 129.968 162.158 123.495 165.524C121.584 166.518 120.12 166.465 118.108 165.859C116.92 164.901 116.146 164.19 115.804 162.651C113.189 150.856 124.804 128.512 131.055 118.343Z" fill="#4C4C4C"/>
<path d="M583.051 353.792C583.272 354.28 583.491 354.77 583.685 355.27C587.446 364.965 586.47 376.708 582.201 386.079C575.749 400.243 563.251 406.826 549.322 411.906L548.192 412.057C548.826 409.008 565.84 393.047 569.244 388.06C576.457 377.493 579.586 365.923 583.051 353.792Z" fill="#4C4C4C"/>
<path d="M531.672 724.159C547.698 728.393 563.727 732.904 579.97 736.227L580.049 746.241C564.127 741.71 547.924 738.032 531.844 734.101L531.672 724.159Z" fill="#4C4C4C"/>
<path d="M531.783 640.6C548.304 643.348 564.866 646.98 581.242 650.523C579.2 652.691 579.85 657.019 579.932 659.972C564.036 656.076 547.804 653.435 531.872 649.519L531.783 640.6Z" fill="#4C4C4C"/>
<path d="M531.63 560.413C547.608 563.838 563.833 566.284 579.906 569.241L579.851 578.632C563.854 575.609 547.826 572.753 531.769 570.064L531.63 560.413Z" fill="#4C4C4C"/>
<path d="M179.91 207.717C180.313 208.386 179.184 238.443 179.185 242.772C184.808 235.064 190.075 227.041 195.506 219.194C194.142 224.805 192.548 230.292 190.82 235.802C188.793 240.742 183.973 251.018 178.774 253.303C177.062 254.055 176.243 253.503 174.695 252.821C173.285 251.111 172.535 249.449 172.017 247.318C168.912 234.556 173.167 218.637 179.91 207.717Z" fill="#4C4C4C"/>
<path d="M579.327 634.031C571.626 631.929 536.573 626.827 532.988 623.635C531.85 622.622 531.593 621.294 531.592 619.814C531.591 617.976 531.404 617.437 532.679 616.132C539.675 616.056 546.876 618.688 553.726 620.035C562.293 621.72 570.968 623.026 579.582 624.461C579.465 627.644 579.276 630.847 579.327 634.031Z" fill="#4C4C4C"/>
<path d="M150.262 167.771C151.46 172.816 149.338 195.721 149.774 203.913C156.072 197.45 160.876 189.37 165.944 181.933C164.348 187.755 162.636 193.544 160.809 199.297C158.382 204.001 155.795 208.744 152.212 212.686C150.3 214.79 148.703 216.236 145.817 216.398C144.697 215.449 144.18 215.133 143.648 213.713C139.465 202.553 145.411 178.351 150.262 167.771Z" fill="#4C4C4C"/>
<path d="M607.624 183.59C607.802 183.764 607.991 183.927 608.158 184.112C615.966 192.761 621.681 211.403 620.662 222.907C620.442 225.393 619.839 228.47 617.672 230.02C616.457 230.89 614.881 231.118 613.459 230.812C606.353 229.286 599.101 219.132 595.442 213.405C593.819 210.34 592.797 207.015 591.67 203.745C599.28 210.231 605.86 220.178 614.66 224.846C614.28 210.313 609.853 197.706 607.624 183.59Z" fill="#4C4C4C"/>
<path d="M585.007 427.062C596.293 426.804 606.442 429.089 616.021 435.241C627.531 442.634 634.473 452.437 637.353 465.715C634.996 461.651 632.663 457.934 629.646 454.305C628.883 453.334 628.078 452.395 627.235 451.493C612.045 435.249 586.249 430.104 564.899 429.229C571.576 428.287 578.283 427.564 585.007 427.062Z" fill="#4C4C4C"/>
<path d="M708.651 116.705C708.757 116.873 708.876 117.034 708.969 117.21C709.734 118.661 710.753 121.704 710.209 123.3C709.817 124.452 709.407 124.316 708.376 124.787C696.93 123.018 681.5 108.931 674.575 99.8C680.74 103.029 688.408 105.243 695.436 104.853C698.405 107.41 705.057 116.384 708.651 116.705Z" fill="#4C4C4C"/>
<path d="M444.082 169.347C453.636 173.363 472.091 177.384 476.565 187.592C478.711 192.488 477.638 199.015 475.729 203.841C475.003 204.664 474.231 205.228 473.336 205.858C471.311 203.465 472.875 195.512 468.751 190.355C461.838 181.709 449.42 179.694 444.082 169.347Z" fill="#4C4C4C"/>
<path d="M554.372 458.106C557.753 465.46 569.545 486.461 566.56 493.8C566.467 494.027 566.352 494.245 566.249 494.468C564.7 494.573 564.509 494.427 563.348 493.336C556.935 487.308 551.914 467.769 548.831 459.149C550.815 459.068 552.477 458.685 554.372 458.106Z" fill="#4C4C4C"/>
<path d="M312.013 196.086C320.174 202.809 314.61 214.298 319.377 222.618C321.765 226.785 329.765 229.09 330.549 230.958L328.533 230.843C319.916 229.063 313.191 226.432 307.33 219.721C308.272 211.972 309.867 203.578 312.013 196.086Z" fill="#FEFEFE"/>
<path d="M455.531 193.257C458.353 195.486 460.033 198.213 461.854 201.256C462.08 204.749 461.681 208.26 461.902 211.763C462.111 215.105 462.243 221.025 464.94 223.366C467.665 223.922 474.559 225.717 476.704 227.281C476.916 227.435 477.116 227.605 477.322 227.766C474.135 228.003 470.536 228.578 467.367 228.187C463.518 227.712 459.489 225.838 457.196 222.648C452.179 215.666 454.417 201.33 455.531 193.257Z" fill="#4C4C4C"/>
<path d="M541.657 465.575C545.507 474.898 552.81 486.963 552.714 497.06L552.049 498.346C549.608 497.814 547.822 495.034 546.551 493.005C541.625 485.139 538.601 475.329 535.332 466.695C537.442 466.439 539.563 465.956 541.657 465.575Z" fill="#4C4C4C"/>
<path d="M604.641 380.818C607.224 383.872 609.221 388.007 611.269 391.459C618.801 404.152 627.067 417.874 627.312 433.032C624.805 430.174 608.64 395.113 606.89 390.348C605.748 387.239 605.138 384.084 604.641 380.818Z" fill="#4C4C4C"/>
<path d="M353.995 349.161C356.418 355.339 357.503 362.158 359.092 368.607C361.57 378.328 364.098 388.037 366.675 397.733C359.242 385.347 352.293 370.249 350.57 355.737L352.204 354.071C352.633 352.243 353.027 350.78 353.995 349.161Z" fill="#4C4C4C"/>
<path d="M564.045 449.414C567.669 455.193 577.806 468.335 576.573 475.093C576.518 475.397 576.433 475.695 576.363 475.996L575.161 476.443C567.306 472.84 562.849 458.17 559.414 450.807L564.045 449.414Z" fill="#4C4C4C"/>
<path d="M601.192 454.253C601.805 454.355 602.37 454.511 602.959 454.711C609.104 456.792 614.066 460.845 616.972 466.676C621.078 474.914 620.575 483.991 617.692 492.502L617.355 492.976C615.691 490.706 617.062 482.476 616.323 479.116C614.12 469.109 607.917 461.59 601.192 454.253Z" fill="#4C4C4C"/>
<path d="M182.768 289.27C184.671 295.148 173.882 328.154 171.517 336.225C168.048 321.365 177.164 302.906 182.768 289.27Z" fill="#4C4C4C"/>
<path d="M447.367 120.413C455.29 125.053 464.472 139.151 470.467 146.426C463.887 144.052 456.714 137.672 452.268 132.364C449.283 128.801 446.975 125.242 447.367 120.413Z" fill="#4C4C4C"/>
<path d="M606.753 685.116C608.635 684.273 610.826 684.521 612.472 685.762C614.118 687.003 614.959 689.041 614.666 691.082C614.373 693.122 612.994 694.842 611.065 695.57C608.203 696.651 605 695.262 603.834 692.435C602.668 689.607 603.961 686.365 606.753 685.116Z" fill="#FEFEFE"/>
<path d="M606.928 601.349C609.67 600.271 612.778 601.523 614.008 604.2C615.237 606.878 614.161 610.05 611.556 611.427C609.736 612.389 607.533 612.265 605.832 611.106C604.131 609.947 603.21 607.943 603.44 605.898C603.669 603.852 605.012 602.102 606.928 601.349Z" fill="#FEFEFE"/>
<path d="M586.764 680.58C588.631 679.736 590.812 679.992 592.433 681.245C594.055 682.498 594.852 684.543 594.506 686.563C594.16 688.582 592.727 690.245 590.781 690.887C587.983 691.81 584.952 690.382 583.883 687.638C582.813 684.894 584.079 681.792 586.764 680.58Z" fill="#FEFEFE"/>
<path d="M587.094 598.431C589.833 597.246 593.018 598.466 594.264 601.178C595.51 603.889 594.362 607.1 591.678 608.406C589.888 609.277 587.766 609.111 586.133 607.972C584.5 606.834 583.612 604.9 583.811 602.92C584.01 600.939 585.267 599.222 587.094 598.431Z" fill="#FEFEFE"/>
<path d="M488.797 208.207C492.246 212.02 496.507 214.786 500.603 217.837C502.582 219.311 504.246 219.938 504.626 222.45C503.645 222.873 502.806 223.213 501.727 223.282C498.999 223.458 495.886 222.572 493.834 220.722C490.049 217.308 489.079 213.07 488.797 208.207Z" fill="#4C4C4C"/>
<path d="M391.025 157.693C392.721 157.49 393.138 157.386 394.765 158.069L394.831 159.321C394.227 160.095 393.59 160.885 392.832 161.514C389.706 164.109 386.389 164.782 382.468 164.239C380.27 163.548 377.613 163.054 376.333 161C378.243 158.421 387.595 158.402 391.025 157.693Z" fill="#4C4C4C"/>
<path d="M346.689 805.902C345.694 799.854 346.305 793.066 346.3 786.926C346.29 775.573 345.894 764.084 346.87 752.764L347.112 753.177L346.949 752.206C348.487 751.704 357.218 754.328 359.193 754.795C359.188 757.215 359.07 759.693 359.272 762.104C359.446 761.17 359.568 760.719 360.203 760.003C363.186 759.455 366.366 759.97 369.409 760.035C372.836 759.063 376.089 759.528 379.331 757.601L389.183 757.696L399.47 757.384C400.193 779.532 399.656 801.841 399.449 824.004C396.09 824.15 392.714 824.232 389.37 824.602C382.638 824.753 376.055 824.52 369.361 823.837L362.874 822.801C358.653 822.635 354.367 820.907 350.591 819.124C349.674 818.364 348.788 817.413 348.121 816.426C346.555 814.107 346.305 811.779 346.917 809.116L346.689 805.902Z" fill="white"/>
<path d="M346.689 805.902C345.694 799.854 346.305 793.066 346.3 786.926C346.29 775.573 345.894 764.084 346.87 752.764L347.112 753.177L346.949 752.206C348.487 751.704 357.218 754.328 359.193 754.795C359.188 757.215 359.07 759.693 359.272 762.104C359.547 774.139 359.288 786.225 359.247 798.266C359.225 804.375 358.575 811.334 359.87 817.318C360.333 819.457 361.46 821.165 362.874 822.801C358.653 822.635 354.367 820.907 350.591 819.124C349.674 818.364 348.788 817.413 348.121 816.426C346.555 814.107 346.305 811.779 346.917 809.116L346.689 805.902Z" fill="white"/>
<path d="M346.689 805.902C346.849 795.722 346.897 785.54 346.834 775.359C346.805 769.84 346.025 763.713 347.065 758.301C348.105 757.563 348.22 757.749 349.437 757.755C350.078 758.164 350.693 758.304 350.907 759.083C351.136 759.916 351.173 807.936 350.775 811.728C350.813 814.17 351.022 816.714 350.591 819.124C349.674 818.364 348.788 817.413 348.121 816.426C346.555 814.107 346.305 811.779 346.917 809.116L346.689 805.902Z" fill="#DCDBDB"/>
<path d="M389.183 757.696L399.47 757.384C400.193 779.532 399.656 801.841 399.449 824.004C396.09 824.15 392.714 824.232 389.37 824.602C388.924 802.345 390.167 779.914 389.183 757.696Z" fill="white"/>
<path d="M359.272 762.104C359.446 761.17 359.568 760.719 360.203 760.003C363.186 759.455 366.366 759.97 369.409 760.035C367.9 770.686 368.856 782.398 368.838 793.203C368.822 802.766 367.77 814.562 369.361 823.837L362.874 822.801C361.46 821.165 360.333 819.457 359.87 817.318C358.575 811.334 359.225 804.375 359.247 798.266C359.288 786.225 359.547 774.139 359.272 762.104Z" fill="#DCDBDB"/>
<path d="M444.632 562.486C444.015 564.866 443.019 567.095 444.362 569.377C444.984 570.435 445.756 571.556 447.047 571.77C447.725 571.882 448.134 571.366 448.671 571.004C450.106 567.885 449.327 561.888 449.361 558.456C449.428 551.665 449.766 544.857 449.903 538.064C450.008 532.785 449.544 526.593 450.673 521.45C450.983 520.035 451.236 519.234 452.321 518.27C455.849 521.877 452.122 563.748 455.459 568.39C456.565 569.929 459.026 570.075 460.721 570.116C465.675 570.235 470.892 569.418 475.192 566.89C475.234 564.565 475.307 562.235 475.314 559.909C479.082 561.008 487.589 562.821 489.31 566.904C489.827 568.133 489.594 569.047 488.979 570.166C486.129 575.348 466.221 578.437 459.934 579.373C451.03 580.699 441.783 581.814 432.777 582.013C429.726 577.871 417 578.133 412.224 577.131C412.077 577.1 411.931 577.066 411.785 577.034C413.953 573.797 412.815 564.543 412.778 560.517C423.217 560.651 434.393 560.266 444.632 562.486Z" fill="#E8E8E8"/>
<path d="M362.287 551.78C362.088 547.358 361.944 523.823 364.048 521.17L364.612 521.445C364.54 524.32 365.314 526.297 365.623 529.018C366.013 532.447 365.828 536.075 365.82 539.53C365.845 539.72 365.873 539.911 365.897 540.101C366.846 547.817 364.107 572.253 369.459 576.235C371.034 577.406 372.872 577.557 374.743 577.219C376.922 576.825 378.948 576.26 380.889 575.172C383.91 576.634 387.377 577.361 390.647 576.217C391.246 576.008 391.572 575.842 392.188 575.567C392.311 575.678 392.426 575.8 392.558 575.901C393.92 576.942 395.888 577.706 397.598 577.618C397.603 577.464 397.568 577.304 397.611 577.155C399.077 572.079 398.505 555.518 398.691 549.386L402.88 549.431C403.016 554.191 402.457 573.545 405.1 576.782C407.356 577.905 409.393 577.516 411.785 577.034C411.931 577.066 412.077 577.1 412.224 577.131C417 578.133 429.726 577.871 432.777 582.013C415.133 583.435 397.532 583.695 379.841 583.685C371.02 583.68 361.486 584.117 352.751 582.833C352.777 581.056 352.721 579.511 352.353 577.77C352.062 577.415 351.868 576.95 351.479 576.707C348.622 574.924 335.657 574.246 330.306 572.036L329.696 571.777C331.127 571.335 332.789 571.057 333.81 569.893L333.638 569.121C331.029 567.471 327.673 567.557 324.94 566.236C323.973 565.769 323.974 565.523 323.613 564.571L324.111 563.803C329.367 560.623 348.235 560.655 355.009 560.649C355.105 564.253 354.192 569.187 355.149 572.566C355.84 575.004 357.327 576.541 359.519 577.693C360.617 577.71 360.649 577.89 361.575 577.192C363.607 573.462 361.926 557.741 362.248 552.35L362.287 551.78Z" fill="#FCFCFC"/>
<path d="M362.287 551.78C362.088 547.358 361.944 523.823 364.048 521.17L364.612 521.445C364.54 524.32 365.314 526.297 365.623 529.018C366.013 532.447 365.828 536.075 365.82 539.53C365.547 542.704 365.498 545.849 365.48 549.034C365.314 545.885 365.958 535.809 363.857 533.753C361.876 537.805 364.028 547.029 362.287 551.78Z" fill="#DCDBDB"/>
<path d="M459.165 502.567L465.706 502.708L465.87 509.663C439.921 510.972 413.942 511.635 387.96 511.649C377.32 511.667 366.375 512.182 355.783 511.368C356.696 511.175 356.88 511.086 357.687 510.508C358.355 508.088 357.62 505.648 357.161 503.232C353.918 503.192 350.723 503.173 347.504 502.73C358.509 502.585 369.51 503.025 380.515 503.015L459.165 502.567Z" fill="white"/>
<path d="M248 482C254.565 484.163 261.028 484.77 267.754 486.009C283.165 486.469 298.554 487.899 313.986 488.384C327.803 488.818 342.236 488.142 355.956 489.54C356.371 492.072 356.751 494.589 357.434 497.066C352.786 497.042 347.861 496.675 343.252 497.2C327.432 497.112 311.616 496.759 295.809 496.138C281.871 496.227 261.713 494.599 248.372 490.632C248.182 487.763 248.12 484.874 248 482Z" fill="#DCDBDB"/>
<path d="M248 482C254.565 484.163 261.028 484.77 267.754 486.009C268.466 487.819 270.04 488.352 271.802 489.118C278.337 491.957 285.298 491.526 291.991 493.354C293.84 493.858 294.042 495.356 295.809 496.138C281.871 496.227 261.713 494.599 248.372 490.632C248.182 487.763 248.12 484.874 248 482Z" fill="white"/>
<path d="M355.956 489.54C392.27 489.828 428.813 490.346 465.112 489.477L465.788 497.187C440.32 498.176 414.7 497.664 389.21 497.659C375.035 497.657 356.928 498.65 343.252 497.2C347.861 496.675 352.786 497.042 357.434 497.066C356.751 494.589 356.371 492.072 355.956 489.54Z" fill="white"/>
<path d="M367.201 649.086C365.76 645.236 366.217 637.592 367.284 633.524L368.766 633.076L368.574 632.772C370.74 636.311 370.309 640.519 370.316 644.513C370.644 647.163 370.682 650.208 372.376 652.369C374.631 653.414 389.658 655.162 391.866 654.449C392.581 654.218 392.587 653.807 392.799 653.148C392.812 653.109 392.805 653.066 392.807 653.025L394.857 653.312C396.441 653.837 397.709 654.029 399.385 653.973C401.978 653.887 405.945 653.579 407.839 651.606L407.757 650.581C406.432 649.288 404.943 649.073 403.188 648.644C403.373 644.963 403.338 641.3 403.293 637.615C407.062 638.943 425.202 648.647 426.312 651.576C427.059 653.548 426.548 656.459 426.297 658.495C404.59 660.756 377.682 661.14 355.871 658.729C355.631 656.042 356.716 652.931 355.881 650.443C355.26 649.679 354.921 649.282 353.977 648.908C353.056 648.542 352.156 648.203 351.243 647.808L352.478 646.912C354.021 647.145 358.546 647.289 359.542 648.118C360.405 650.642 361.429 651.817 363.892 652.919C364.662 653.263 365.334 653.285 366.162 653.264C366.765 652.881 367.419 652.738 367.566 651.984C367.761 650.978 367.447 650.055 367.201 649.086Z" fill="white"/>
<path d="M367.201 649.086C365.76 645.236 366.217 637.592 367.284 633.524L368.766 633.076L368.574 632.772C370.74 636.311 370.309 640.519 370.316 644.513L370.069 647.156L370.193 646.118L369.747 646.425C369.631 644.067 369.893 640.735 368.902 638.602L368.111 638.266C367.024 639.452 367.158 640.166 367.226 641.736C367.292 643.274 368.048 648.035 367.201 649.086Z" fill="white"/>
<path d="M341.8 587.615C370.326 589.285 399.022 589.971 427.559 588.081C429.527 588.095 431.598 587.738 433.315 588.726C433.828 590.46 433.635 592.317 433.582 594.108C418.428 596.12 402.722 595.664 387.47 595.653C373.009 595.644 357.761 596.027 343.405 594.345L344.553 593.835C344.936 592.539 345.084 591.618 344.688 590.288C344.159 588.513 343.322 588.303 341.8 587.615Z" fill="white"/>
<path d="M363.448 725.969C367.25 725.694 374.429 725.804 377.161 722.941C379.865 720.105 376.995 687.164 380.133 682.2C383.978 689.072 380.33 718.505 383.145 725.298C383.966 727.279 385.521 728.458 387.539 729.074C390.52 729.985 396.003 729.46 399.106 728.939C400.98 729.871 402.798 730.623 404.219 732.208L404.451 733.273L403.744 734.061C393.474 734.734 382.221 735.585 372.008 734.199C363.369 734.266 354.424 732.455 346.051 730.499C346.367 729.068 346.623 726.919 347.411 725.669C348.277 724.294 349.521 724.178 350.947 723.739L351.693 723.535C353.933 724.124 355.956 724.644 358.291 724.716C360 725.144 361.718 725.639 363.448 725.969Z" fill="white"/>
<path d="M350.947 723.739L351.693 723.535C353.933 724.124 355.956 724.644 358.291 724.716C360 725.144 361.718 725.639 363.448 725.969C368.316 726.67 373.205 727.554 378.032 728.502C377.849 730.196 377.909 732.438 376.711 733.716C375.133 734.194 373.637 734.176 372.008 734.199C363.369 734.266 354.424 732.455 346.051 730.499C346.367 729.068 346.623 726.919 347.411 725.669C348.277 724.294 349.521 724.178 350.947 723.739Z" fill="#DCDBDB"/>
<path d="M283.836 500.521C305.033 501.866 326.265 502.603 347.504 502.73C350.723 503.173 353.918 503.192 357.161 503.232C357.62 505.648 358.355 508.088 357.687 510.508C356.88 511.086 356.696 511.175 355.783 511.368L298.417 509.167C295.49 506.785 291.283 506.611 287.71 505.591C285.242 504.888 281.658 503.974 280.354 501.67L280.978 500.871L283.836 500.521Z" fill="white"/>
<path d="M402.851 634.977C410.458 635.458 418.415 635.55 425.902 637.035C425.833 640.167 424.894 645.85 427.339 648.229C429.976 650.796 435.329 650.459 438.733 650.124C443.618 649.644 448.375 648.406 452.698 646.055L452.704 639.492C456.531 640.967 460.362 641.879 462.808 645.374C463.025 646.757 463.139 647.148 462.364 648.411C458.538 654.643 433.936 657.622 426.297 658.495C426.548 656.459 427.059 653.548 426.312 651.576C425.202 648.647 407.062 638.943 403.293 637.615C403.338 641.3 403.373 644.963 403.188 648.644C402.415 644.216 402.714 639.462 402.851 634.977Z" fill="white"/>
<path d="M390.328 838.501C381.709 840.44 371.526 837.828 363.883 833.721C361.359 832.365 357.05 829.9 356.571 826.764C356.38 825.512 356.369 825.214 357.09 824.204C362.091 826.466 366.752 828.163 372.148 829.261C388.193 830.198 399.493 830.522 415.259 825.64C408.176 833.369 400.825 837.301 390.328 838.501Z" fill="white"/>
<path d="M390.328 838.501C381.709 840.44 371.526 837.828 363.883 833.721C361.359 832.365 357.05 829.9 356.571 826.764C356.38 825.512 356.369 825.214 357.09 824.204C362.091 826.466 366.752 828.163 372.148 829.261C376.29 832.241 388.101 833.755 390.538 837.847L390.328 838.501Z" fill="white"/>
<path d="M302.167 570.779C311.601 572.642 320.322 571.196 329.696 571.777L330.306 572.036C335.657 574.246 348.622 574.924 351.479 576.707C351.868 576.95 352.062 577.415 352.353 577.77C352.721 579.511 352.777 581.056 352.751 582.833C337.513 582.367 322.311 581.085 307.211 578.992C307.264 578.664 307.359 578.341 307.371 578.01C307.472 575.237 301.743 575.471 300.141 573.614C300.427 572.123 301.086 571.807 302.167 570.779Z" fill="#DCDBDB"/>
<path d="M420.455 752.975C421.706 753.18 421.145 752.94 422.145 753.679C422.466 761.26 423.257 805.423 421.092 809.555C420.387 810.901 419.323 812.338 419.686 813.828L421.382 813.87C421.413 814.006 421.462 814.139 421.476 814.279C421.653 816.102 420.047 817.624 418.939 818.863C417.939 819.507 417.35 820.238 416.141 820.033C415.39 818.601 416.401 808.142 416.401 805.469C416.4 798.511 415.516 760.258 416.542 756.762C417.116 754.808 418.835 753.968 420.455 752.975Z" fill="white"/>
<path d="M368.994 665.123C388.459 665.725 407.3 665.414 426.722 664.071L426.705 670.645C412.09 672.412 397.128 671.967 382.436 671.788C377.464 671.727 371.475 672.233 366.621 671.192C368.333 671.202 369.745 671.127 371.404 670.69L371.693 670.112C370.802 668.783 369.796 667.448 369.26 665.928C369.166 665.661 369.082 665.391 368.994 665.123Z" fill="white"/>
<path d="M489.252 576.874L489.144 582.895C477.527 588.786 447.166 593.905 433.582 594.108C433.635 592.317 433.828 590.46 433.315 588.726C431.598 587.738 429.527 588.095 427.559 588.081C427.717 588.054 427.876 588.025 428.034 587.999C432.646 587.256 437.464 587.389 442.133 586.985C457.304 585.673 475.578 583.646 489.252 576.874Z" fill="#F1F1F1"/>
<path d="M416.262 711.159C419.619 712.086 423.051 712.915 426.347 714.033C426.061 716.604 425.233 719.863 426.919 722.089C427.762 723.202 428.748 723.567 430.099 723.689C432.271 723.885 436.029 721.557 437.656 722.509C437.39 724.208 436.841 725.006 435.464 725.963C427.899 731.22 412.823 733.06 403.744 734.061L404.451 733.273L404.219 732.208C402.798 730.623 400.98 729.871 399.106 728.939C404.99 728.129 410.802 727.595 416.343 725.316L416.262 711.159Z" fill="#FEFEFE"/>
<path d="M465.112 489.477C477.703 488.74 492.258 488.209 504.282 484.179L504.328 492.597C491.711 495.02 478.666 497.056 465.788 497.187L465.112 489.477Z" fill="#F1F1F1"/>
<path d="M322.142 659.298C337.582 662.769 353.217 664.256 368.994 665.123C369.082 665.391 369.166 665.661 369.26 665.928C369.796 667.448 370.802 668.783 371.693 670.112L371.404 670.69C369.745 671.127 368.333 671.202 366.621 671.192C352.612 670.922 337.966 668.75 324.283 665.785C323.988 665.003 324.152 665.332 323.709 664.591C323.424 664.115 323.129 663.644 322.853 663.162C322.006 661.682 321.709 660.966 322.142 659.298Z" fill="#DCDBDB"/>
<path d="M459.165 502.567C464.291 502.033 469.458 502.252 474.6 501.947C484.478 501.361 494.581 500.101 504.255 498.02L504.699 505.076C492.401 507.919 478.49 509.651 465.87 509.663L465.706 502.708L459.165 502.567Z" fill="#F1F1F1"/>
<path d="M248.356 500.699L248.09 494.316C259.501 499.377 271.648 499.173 283.836 500.521L280.978 500.871L280.354 501.67C281.658 503.974 285.242 504.888 287.71 505.591C291.283 506.611 295.49 506.785 298.417 509.167C284.072 508.913 261.276 506.748 248.356 500.699Z" fill="white"/>
<path d="M375.763 560.599C381.286 560.413 386.771 560.247 392.298 560.434L392.188 575.567C391.572 575.842 391.246 576.008 390.647 576.217C387.377 577.361 383.91 576.634 380.889 575.172L375.744 571.904L375.763 560.599Z" fill="white"/>
<path d="M336.69 647.623C341.563 648.169 346.355 648.15 351.243 647.808C352.156 648.203 353.056 648.542 353.977 648.908C354.921 649.282 355.26 649.679 355.881 650.443C356.716 652.931 355.631 656.042 355.871 658.729C347.413 658.057 338.982 657.086 330.593 655.816C329.948 654.873 329.179 653.871 328.69 652.84C328.008 651.402 328.748 649.998 329.278 648.628C331.482 648.741 333.434 648.496 335.608 648.183L336.69 647.623Z" fill="#DCDBDB"/>
<path d="M293.097 560.5C292.981 562.229 292.755 564.27 293.543 565.876C295.107 569.065 299.081 569.825 302.167 570.779C301.086 571.807 300.427 572.123 300.141 573.614C301.743 575.471 307.472 575.237 307.371 578.01C307.359 578.341 307.264 578.664 307.211 578.992C306.67 578.96 306.127 578.929 305.589 578.858C300.13 578.133 281.899 575.063 279.051 569.939C278.458 568.872 278.482 567.88 279.101 566.832C281.216 563.255 289.324 561.561 293.097 560.5Z" fill="white"/>
<path d="M308.829 584.328C319.597 586.033 330.91 587.336 341.8 587.615C343.322 588.303 344.159 588.513 344.688 590.288C345.084 591.618 344.936 592.539 344.553 593.835L343.405 594.345C333.25 593.869 323.198 592.693 313.093 591.67C313.006 591.595 312.902 591.536 312.831 591.445C312.139 590.565 311.904 590.053 310.922 589.402C309.268 588.304 307.537 587.57 306.821 585.664C307.52 584.49 307.602 584.722 308.829 584.328Z" fill="#DCDBDB"/>
<path d="M315.826 636.694C315.688 639.059 315.32 641.263 316.688 643.354C319.113 647.062 325.252 647.655 329.278 648.628C328.748 649.998 328.008 651.402 328.69 652.84C329.179 653.871 329.948 654.873 330.593 655.816C326.362 655.125 322.129 654.432 317.987 653.308C314.22 652.286 306.927 650.171 305.383 646.227C304.991 645.226 305.064 644.346 305.481 643.39C306.994 639.91 312.631 638.112 315.826 636.694Z" fill="white"/>
<path d="M426.722 664.071C435.135 663.351 443.474 661.93 451.651 659.824C455.191 658.88 459.617 656.145 463.14 655.931C463.711 656.866 463.853 657.827 463.57 658.917C462.979 661.192 459.295 662.522 457.298 663.422C449.051 667.137 435.882 670.153 426.705 670.645L426.722 664.071Z" fill="white"/>
<path d="M350.4 736.815C360.803 738.553 371.008 739.827 381.569 740.045C383.443 742.535 384.01 743.526 383.594 746.636C373.093 746.59 362.612 745.706 352.251 743.992C351.653 741.594 351.036 739.202 350.4 736.815Z" fill="#DCDBDB"/>
<path d="M278.145 575.483C287.788 580.838 298.125 582.361 308.829 584.328C307.602 584.722 307.52 584.49 306.821 585.664C307.537 587.57 309.268 588.304 310.922 589.402C311.904 590.053 312.139 590.565 312.831 591.445C312.902 591.536 313.006 591.595 313.093 591.67C301.748 590.367 288.112 588.473 278.384 582.261L278.145 575.483Z" fill="white"/>
<path d="M404.292 739.397L404.956 739.338C410.774 738.787 416.904 737.903 422.582 736.524C426.124 735.663 433.932 731.054 437.084 732.312C437.539 733.453 437.722 734.334 437.192 735.528C435.681 738.93 426.753 741.322 423.288 742.316C417.738 743.908 410.292 745.618 404.558 745.673C405.37 743.113 405.288 741.883 404.292 739.397Z" fill="white"/>
<path d="M465.186 519.484C466.537 519.778 467.668 519.975 468.818 520.802C470.074 523.32 469.235 553.509 469.633 559.492L469.679 560.121L468.927 560.243C468.959 560.481 469.147 561.958 469.196 562.168C469.232 562.326 469.319 562.468 469.381 562.619L468.849 563.276L464.65 561.366C465.154 547.398 464.757 533.444 465.186 519.484Z" fill="white"/>
<path d="M392.807 653.025C391.967 652.091 391.254 651.194 390.9 649.966C388.824 642.776 390.715 622.012 391.146 613.632C391.19 612.8 391.251 611.969 391.329 611.14L391.737 611.156L391.537 609.621C393.096 610.896 394.358 611.547 394.524 613.717C394.755 616.733 394.346 619.87 394.418 622.915C394.709 633.044 394.856 643.178 394.857 653.312L392.807 653.025Z" fill="white"/>
<path d="M379.096 605.86L380.411 606.469C381.629 612.295 382.655 645.089 380.242 649.143C378.998 648.419 378.25 647.879 377.769 646.455C376.257 641.976 377.12 610.477 379.096 605.86Z" fill="white"/>
<path d="M346.051 730.499C341.736 729.324 333.607 727.409 331.578 722.976C330.983 721.677 330.927 720.739 331.382 719.382C332.503 716.045 337.264 713.987 340.251 712.666L340.216 713.69C340.133 716.375 339.746 719.826 342.011 721.811C344.382 723.89 347.977 723.719 350.947 723.739C349.521 724.178 348.277 724.294 347.411 725.669C346.623 726.919 346.367 729.068 346.051 730.499Z" fill="white"/>
<path d="M443.454 602.201C444.23 602.369 444.958 602.627 445.711 602.876C445.894 603.298 445.991 603.467 446.075 603.972C446.935 609.141 446.746 637.131 446.149 642.928C446.051 643.877 445.8 644.401 445.281 645.178C444.324 645.075 443.742 644.922 442.897 644.459C441.105 639.1 443.181 609.888 443.454 602.201Z" fill="white"/>
<path d="M381.569 740.045C389.142 739.867 396.728 739.824 404.292 739.397C405.288 741.883 405.37 743.113 404.558 745.673C397.561 746.351 390.631 746.751 383.594 746.636C384.01 743.526 383.443 742.535 381.569 740.045Z" fill="white"/>
<path d="M393.268 681.389C393.474 681.515 393.707 681.606 393.888 681.766C395.537 683.224 395.899 719.085 395.252 723.361C395.027 724.848 394.798 724.901 393.662 725.778L392.45 724.77C389.78 719.375 392.126 688.616 393.268 681.389Z" fill="white"/>
<path d="M433.074 604.445C433.865 605.144 434.662 606.059 435.073 607.05C436.799 611.211 437.332 639.766 435.7 644.172C435.029 643.97 434.074 643.886 433.621 643.311C430.951 639.923 432.664 610.591 433.074 604.445Z" fill="white"/>
<path d="M312.101 520.258L313.226 520.989C314.771 528.05 314.28 536.208 314.265 543.427C314.244 553.181 314.202 562.621 315.289 572.339L315.125 572.099C313.412 569.535 312.352 566.956 311.793 563.915C310.39 556.271 310.592 527.884 312.101 520.258Z" fill="#DCDBDB"/>
<path d="M330.857 729.21C336.867 733.084 343.483 735.2 350.4 736.815C351.036 739.202 351.653 741.594 352.251 743.992C344.515 742.513 337.689 740.314 331.394 735.48L330.857 729.21Z" fill="white"/>
<path d="M331.889 643.75C331.453 637.813 330.538 611.961 334.015 607.808L334.732 607.784C337.087 612.363 333.057 642.319 336.173 646.924C336.336 647.164 336.518 647.39 336.69 647.623L335.608 648.183C334.243 646.848 333.086 645.236 331.889 643.75Z" fill="#DCDBDB"/>
<path d="M344.027 601.529L344.41 602.048C344.339 604.508 344.91 606.996 345.045 609.468C345.502 617.875 346.865 636.568 345.163 644.051C344.853 643.925 344.53 643.824 344.231 643.672C343.022 643.057 342.571 642.524 342.354 641.206C341.462 635.778 341.581 605.169 344.027 601.529Z" fill="white"/>
<path d="M322.194 604.759C323.475 605.561 323.943 605.695 324.428 607.201C326.07 612.301 325.902 633.086 324.765 638.433C324.54 639.487 324.063 640.341 323.529 641.265C322.645 641.405 323.122 641.431 322.114 641.043C320.383 635.861 321.254 610.765 322.194 604.759Z" fill="white"/>
<path d="M406.947 685.476C407.101 685.988 407.132 686.037 407.217 686.654C407.731 690.392 407.801 721.845 406.601 723.425L405.428 723.476C404.708 722.092 404.122 720.779 403.919 719.218C403.141 713.218 403.508 694.606 404.57 688.65C404.898 686.808 405.535 686.483 406.947 685.476Z" fill="white"/>
<path d="M349.125 636.069C352.627 635.646 356.152 635.126 359.674 634.945C359.705 639.145 360.232 644.001 359.542 648.118C358.546 647.289 354.021 647.145 352.478 646.912C352.271 646.18 352.316 645.851 351.731 645.344C350.078 643.91 349.219 642.582 349.106 640.348C349.034 638.925 349.08 637.493 349.125 636.069Z" fill="white"/>
<path d="M346.299 683.007C347.319 683.143 347.963 683.394 348.869 683.879C349.731 687.228 350.392 715.084 349.337 718.189C349.027 719.103 348.733 719.002 347.917 719.411C347.359 718.873 346.921 718.516 346.535 717.804C345.071 715.098 345.454 689.932 346.665 687.008L348.129 686.578L348.134 685.784C347.354 685.108 346.973 684.741 346.567 683.758C346.465 683.513 346.388 683.257 346.299 683.007Z" fill="white"/>
<path d="M366.386 681.748C366.834 681.989 367.136 682.3 367.508 682.643C369.233 689.323 369.882 712.794 368.96 719.761C368.036 719.757 367.282 719.633 366.385 719.411C364.375 715.166 366.167 688.248 366.386 681.748Z" fill="#FAFAFA"/>
<path d="M324.283 665.785C318.749 664.735 310.283 663.113 306.398 658.886C304.909 657.267 305.239 655.2 305.272 653.155C310.769 655.99 316.16 657.753 322.142 659.298C321.709 660.966 322.006 661.682 322.853 663.162C323.129 663.644 323.424 664.115 323.709 664.591C324.152 665.332 323.988 665.003 324.283 665.785Z" fill="white"/>
<path d="M340.365 525.005C340.438 524.084 340.364 522.752 340.709 521.915L341.773 521.468L340.942 521.427L341.382 520.621L340.955 521.669L342.099 521.711C343.665 525.815 344.469 549.457 342.285 552.931C342.132 553.174 341.934 553.385 341.758 553.611L340.908 553.207C339.141 548.21 339.609 541.951 340.11 536.756L340.365 525.005Z" fill="white"/>
<path d="M340.365 525.005C342.154 526.135 342.325 526.15 342.798 528.325C343.163 530.001 342.719 532.426 341.834 533.906C341.513 534.444 341.041 534.88 340.706 535.409C340.486 535.757 340.267 536.357 340.11 536.756L340.365 525.005Z" fill="#DCDBDB"/>
<path d="M431.876 679.773L433.237 680.349C433.578 680.902 433.636 680.932 433.855 681.657C434.676 684.369 434.72 717.529 433.611 719.267C428.639 708.673 432.221 691.874 431.895 680.31L431.876 679.773Z" fill="white"/>
<path d="M427.609 520.209L429.812 520.79C431.095 522.856 431.174 546.31 430.958 550.178C430.025 550.149 429.247 550.002 428.344 549.767C426.032 546.811 427.502 525.258 427.609 520.209Z" fill="white"/>
<path d="M298.597 549.758C298.525 544.912 297.663 528.661 298.67 525.226L299.506 524.961L300.858 525.769C302.868 528.509 302.223 545.371 302.294 549.727L298.597 549.758Z" fill="#DCDBDB"/>
<path d="M399.198 527.378L402.216 526.752C402.615 534.306 402.836 541.868 402.88 549.431L398.691 549.386C398.743 542.048 398.912 534.711 399.198 527.378Z" fill="white"/>
<path d="M326.313 527.125C327.073 526.149 328.099 526.001 329.232 525.683C329.31 531.124 330.649 549.21 328.017 552.948L327.386 553.078C326.473 552.273 326.166 552.085 326.054 550.781C325.881 548.768 326.213 546.512 326.233 544.469L326.313 527.125Z" fill="white"/>
<path d="M322.324 674.951C322.453 675.043 322.591 675.123 322.71 675.227C324.964 677.186 324.352 694.545 324.462 698.331C326.206 701.545 330.175 704.35 329.795 708.167C327.691 705.926 325.319 703.461 323.839 700.749C320.676 694.954 320.423 681.408 322.324 674.951Z" fill="#DCDBDB"/>
<path d="M445.014 694.743C445.076 690.349 444.179 681.364 446.825 677.753L446.173 677.533L446.098 677.888L446.622 677.081C448.678 682.423 447.815 689.665 447.994 695.359C447.131 700.678 443.764 703.891 440.028 707.415C442.241 703.259 443.695 699.252 445.014 694.743Z" fill="white"/>
<path d="M359.193 754.795C365.862 756.005 372.714 756.325 379.331 757.601C376.089 759.528 372.836 759.063 369.409 760.035C366.366 759.97 363.186 759.455 360.203 760.003C359.568 760.719 359.446 761.17 359.272 762.104C359.07 759.693 359.188 757.215 359.193 754.795Z" fill="white"/>
<path d="M379.193 524.064L379.417 524.107C380.505 529.253 381.089 547.066 378.823 551.577C378.257 550.916 378.143 550.433 378.039 549.579C377.246 543.055 376.246 529.688 379.193 524.064Z" fill="#DCDBDB"/>
<path d="M298.597 549.758L302.294 549.727C302.393 553.15 303.185 559.168 300.978 561.952L300.518 561.996C298.017 558.583 298.672 553.754 298.597 549.758Z" fill="#DCDBDB"/>
<path d="M351.693 723.535C353.383 722.537 354.355 722.224 355.318 720.483C355.383 718.199 353.812 714.147 354.422 712.435C355.593 712.034 356.224 712.064 357.438 712.274C358.181 716.444 356.813 720.691 358.291 724.716C355.956 724.644 353.933 724.124 351.693 723.535Z" fill="white"/>
<path d="M404.278 603.437C405.073 604.056 405.409 604.326 405.638 605.399C406.004 607.12 406.501 617.232 405.962 618.793C405.791 619.289 405.375 619.661 405.081 620.095C404.369 619.794 403.51 619.731 403.264 618.939C402.136 615.314 402.726 606.751 404.278 603.437Z" fill="white"/>
<path d="M335.455 679.036C335.543 679.143 335.648 679.238 335.72 679.357C336.911 681.329 336.68 690.916 336.187 693.629C335.93 695.041 335.613 695.042 334.476 695.829C334.086 695.074 333.89 694.276 333.819 693.428C333.561 690.334 333.542 681.418 335.455 679.036Z" fill="#DCDBDB"/>
<path d="M399.198 527.378C399.124 524.997 398.797 522.913 400.293 520.903L401.125 521.002C402.35 522.706 402.147 524.73 402.216 526.752L399.198 527.378Z" fill="white"/>
<path d="M326.313 527.125C326.259 526.128 326.196 525.125 326.194 524.126C326.19 522.38 326.374 521.304 327.637 520.004L328.444 520.287C329.35 521.934 329.196 523.851 329.232 525.683C328.099 526.001 327.073 526.149 326.313 527.125Z" fill="white"/>
<path d="M437.369 419.115C417.615 439.005 414.018 451.125 407.883 474.379L405.563 474.181C405.57 469.29 405.833 464.405 406.063 459.497C403.035 462.452 401.269 466.406 398.798 469.813C397.909 471.039 396.982 472.219 396.028 473.367L388.467 472.722C389.057 471.152 389.731 469.612 390.534 468.116C393.438 457.764 396.296 446.772 402.896 438.068C411.527 426.685 423.542 421.016 437.369 419.115Z" fill="#FEFEFE"/>
<path d="M349.556 433C339.965 443.177 332.276 454.913 326.835 467.677C341.046 462.658 352.262 452.602 366 447.105C363.042 451.73 347.281 462.752 333.341 471.952L322.284 470.504L322.251 470.5H314.683C316.273 464.057 319.036 458.248 323.186 451.234C324.703 448.669 326.837 445.889 327.277 442.955C333.311 438.209 342.113 435.006 349.556 433Z" fill="#4C4C4C"/>
<path d="M290.004 388.031C300.037 387.637 310.231 391.042 319.319 394.453C302.417 394.469 287.331 398.292 275.134 409.049C261.875 420.74 257.784 436.646 257.579 452.563C257.701 458.676 258.266 464.568 259.3 470.5H255.424C248.242 460.182 248.612 452.797 246.392 439.01C245.579 425.615 251.598 410.114 261.985 400.106C269.273 393.081 279.03 388.462 290.004 388.031Z" fill="#FEFEFE"/>
<path d="M303.795 415.316C321.747 404.777 338.29 410.908 356.857 415.242C347.821 418.185 339.161 420.799 330.846 425.453C343.401 424.794 355.723 421.896 368.355 421.746C381.967 421.585 394.422 424.548 408.258 423.033C388.87 437.136 377.789 458.136 362.293 475.745L360.896 475.562C367.373 463.149 373.968 450.523 381.587 438.804C376.527 441.263 371.46 443.633 366.741 446.68C363.716 451.372 347.38 462.664 333.193 471.933L322.284 470.504L322.251 470.5H315.026C316.605 463.88 319.416 457.97 323.691 450.798C325.218 448.238 327.363 445.465 327.806 442.538C317.443 448.595 308.79 456.144 300.494 464.635C300.993 449.867 302.04 437.768 312.151 425.957C301.796 431.756 294.631 437.68 288.483 447.786C286.083 450.489 279.329 460.845 276.721 461.581L276.258 461.402C276.548 458.212 277.082 455.049 277.855 451.936C281.331 437.655 290.66 423.027 303.795 415.316Z" fill="#FEFEFE"/>
</svg>

